<?xml version="1.0" standalone="no"?>
<!DOCTYPE svg PUBLIC "-//W3C//DTD SVG 20010904//EN"
 "http://www.w3.org/TR/2001/REC-SVG-20010904/DTD/svg10.dtd">
<svg version="1.0" xmlns="http://www.w3.org/2000/svg"
 width="1895.000000pt" height="3500.000000pt" viewBox="0 0 1895.000000 3500.000000"
 preserveAspectRatio="xMidYMid meet">

<g transform="translate(0.000000,3500.000000) scale(0.100000,-0.100000)"
fill="#000000" stroke="none">
<path d="M9120 34309 c-204 -31 -487 -169 -696 -340 -140 -114 -289 -297 -345
-424 -34 -77 -77 -265 -105 -454 -49 -341 -78 -412 -190 -462 -39 -18 -52 -35
-68 -94 -32 -118 -36 -432 -7 -572 40 -192 130 -320 287 -407 194 -108 248
-197 265 -434 6 -87 20 -171 39 -247 40 -151 54 -324 46 -549 -7 -187 -28
-379 -48 -437 -18 -52 -49 -89 -166 -191 -291 -255 -710 -574 -1072 -815
l-136 -91 -289 20 c-450 30 -534 22 -800 -79 -260 -99 -425 -201 -590 -367
-130 -131 -201 -233 -329 -468 l-94 -173 -5 -850 c-7 -1056 -11 -1108 -103
-1370 -184 -522 -271 -820 -339 -1165 -70 -356 -123 -541 -179 -625 -56 -84
-215 -253 -391 -416 -501 -460 -590 -654 -890 -1934 -132 -565 -254 -1027
-301 -1138 -136 -323 -746 -1124 -1000 -1315 -36 -27 -91 -57 -122 -67 -233
-73 -491 -320 -941 -900 -305 -392 -359 -498 -301 -592 48 -79 235 -71 423 17
104 49 122 49 121 0 -1 -44 -36 -131 -163 -402 -209 -451 -247 -569 -207 -647
55 -105 189 -81 356 65 159 138 251 214 260 214 17 0 12 -21 -64 -328 -87
-345 -103 -445 -86 -526 15 -72 64 -119 142 -136 146 -33 289 87 429 360 l44
85 7 -205 c4 -113 11 -221 16 -240 25 -99 66 -140 137 -140 148 0 247 180 411
743 33 115 51 163 56 150 4 -10 17 -69 28 -132 24 -131 61 -220 115 -280 73
-81 139 -93 219 -40 58 39 120 120 134 174 6 22 16 105 22 185 6 80 29 285 50
455 65 514 114 821 150 925 23 70 108 396 194 745 126 516 230 811 375 1074
123 220 237 375 506 681 426 486 778 943 1027 1332 211 329 303 569 413 1081
111 516 137 577 439 1037 208 317 334 529 451 759 113 220 118 229 140 211 18
-15 103 -150 162 -260 135 -246 218 -548 258 -930 22 -216 36 -665 29 -915 -8
-278 -24 -400 -69 -528 -68 -192 -83 -243 -95 -317 -7 -44 -15 -313 -20 -655
-10 -689 -11 -698 -94 -843 -67 -119 -95 -181 -145 -325 -76 -222 -131 -465
-176 -777 -60 -422 -123 -809 -235 -1445 -181 -1028 -244 -1704 -220 -2344 5
-141 15 -411 22 -601 7 -190 12 -653 13 -1030 0 -627 -2 -711 -24 -995 -13
-170 -24 -384 -24 -475 -1 -164 -1 -166 31 -243 20 -49 32 -96 32 -124 0 -24
-20 -124 -45 -221 -25 -96 -53 -219 -61 -271 -18 -109 -21 -320 -5 -400 38
-191 -15 -364 -209 -676 -274 -441 -381 -639 -503 -925 -261 -614 -275 -833
-142 -2230 69 -730 85 -977 92 -1465 11 -760 -38 -1150 -178 -1412 -78 -146
-79 -154 -89 -683 -8 -401 -11 -477 -28 -555 -54 -248 -223 -583 -451 -890
-263 -356 -401 -603 -401 -720 0 -79 39 -116 183 -174 51 -20 133 -63 182 -95
50 -33 116 -71 148 -87 58 -27 88 -36 287 -84 73 -17 141 -43 225 -84 123 -62
221 -92 358 -110 183 -25 225 -12 344 112 149 156 198 296 213 617 15 306 65
551 165 806 62 158 132 289 245 459 111 168 176 298 191 382 20 115 -8 210
-155 530 -72 158 -86 216 -86 378 0 257 36 550 101 814 97 394 253 785 674
1686 397 848 503 1149 546 1540 21 201 6 421 -60 825 -86 528 -98 831 -38 979
13 31 68 127 124 212 187 287 202 334 268 849 55 428 82 546 154 670 61 104
95 176 145 310 134 355 287 961 371 1460 52 310 111 503 371 1198 361 964 362
969 399 1749 8 172 15 323 15 337 l0 26 284 0 284 0 5 -427 c6 -474 10 -519
80 -783 46 -172 111 -364 282 -825 247 -663 355 -1016 405 -1315 78 -464 319
-1377 417 -1577 14 -29 52 -85 84 -125 88 -108 106 -180 154 -608 62 -542 94
-652 271 -917 150 -225 148 -218 152 -468 4 -247 -14 -472 -59 -735 -62 -356
-62 -357 -63 -585 -1 -165 4 -249 17 -335 63 -400 202 -787 512 -1425 388
-797 576 -1258 685 -1681 80 -309 104 -511 98 -826 -4 -211 -6 -227 -31 -302
-15 -43 -56 -133 -92 -200 -84 -160 -115 -253 -115 -348 0 -129 37 -215 200
-463 261 -398 360 -709 415 -1305 30 -323 56 -403 181 -552 88 -106 119 -121
259 -126 126 -5 257 9 330 33 27 10 76 35 110 56 78 49 170 84 276 104 209 40
253 56 349 130 66 52 135 87 215 110 126 36 198 91 211 160 21 111 -119 383
-331 645 -97 119 -175 234 -253 375 -124 222 -245 522 -274 680 -13 74 -16
308 -8 710 6 266 10 244 -102 495 -82 183 -112 291 -138 495 -38 300 -53 541
-53 850 1 449 25 789 138 1925 85 859 66 1190 -93 1606 -141 367 -292 666
-502 989 -144 221 -182 290 -220 394 -46 125 -60 230 -70 526 -13 373 -26 461
-95 677 -19 59 -35 117 -35 128 0 12 23 65 51 118 l51 97 -5 115 c-4 63 -11
165 -16 225 -20 220 -31 1154 -31 2684 l0 1564 -99 501 c-152 762 -254 1335
-326 1826 -94 648 -145 844 -297 1145 -91 182 -104 213 -119 299 -5 33 -14
318 -19 631 -10 643 -10 641 -89 888 -63 193 -69 239 -82 592 -12 322 0 750
27 985 46 410 146 700 342 1000 96 147 92 145 140 63 22 -37 76 -141 122 -231
95 -190 237 -428 439 -736 256 -391 317 -535 396 -938 78 -395 151 -651 230
-809 132 -261 407 -669 690 -1024 148 -186 268 -326 503 -588 296 -330 438
-520 554 -747 147 -287 218 -507 392 -1210 57 -234 127 -506 154 -606 72 -258
119 -542 167 -1009 62 -599 78 -664 169 -709 79 -39 185 -17 247 51 56 59 99
181 100 283 0 76 18 124 46 128 25 4 43 -28 43 -72 0 -29 72 -291 117 -425 66
-198 149 -338 224 -376 71 -37 178 -2 214 70 17 34 20 65 23 220 3 183 7 225
20 225 4 0 33 -47 65 -103 121 -215 213 -307 306 -307 91 0 195 72 221 154 20
62 6 154 -70 449 -112 440 -109 455 55 287 148 -152 279 -232 377 -232 41 0
55 4 77 26 23 24 26 33 25 99 -1 113 -41 226 -204 587 -100 221 -160 377 -160
415 0 34 17 32 120 -11 195 -82 296 -95 380 -51 46 24 80 74 80 118 0 33 -96
179 -277 421 -474 633 -718 873 -1002 986 -47 19 -109 51 -137 72 -184 137
-729 836 -933 1195 -59 105 -82 170 -156 435 -68 246 -124 469 -220 880 -213
908 -337 1263 -533 1530 -77 104 -132 160 -327 335 -432 386 -473 463 -595
1110 -102 539 -119 593 -321 1053 l-99 224 0 471 c0 542 -16 1297 -29 1455
-28 314 -236 654 -538 881 -124 93 -244 161 -407 231 -198 85 -180 83 -704 87
l-464 4 -212 143 c-241 162 -385 240 -427 231 -22 -5 -28 -2 -33 19 -8 33
-185 208 -436 431 -113 101 -216 192 -229 202 -23 19 -25 31 -44 244 -25 291
-28 643 -5 714 49 153 79 290 88 396 10 126 26 181 66 237 39 54 86 87 167
118 59 22 85 40 143 98 81 81 131 172 165 302 30 112 36 326 15 458 -26 154
-52 199 -157 267 -81 51 -98 102 -119 354 -20 244 -59 415 -125 550 -113 233
-428 510 -715 628 -174 72 -399 107 -710 112 -124 2 -254 -1 -290 -6z m635
-182 c406 -103 706 -272 872 -491 99 -131 177 -342 202 -544 6 -46 14 -166 17
-265 7 -200 25 -332 48 -355 13 -13 17 -11 36 22 40 67 107 57 143 -21 20 -44
22 -63 21 -223 0 -141 -5 -195 -22 -278 -49 -228 -134 -352 -194 -284 -25 28
-31 74 -37 307 l-6 219 -53 -149 c-63 -180 -97 -302 -151 -540 -74 -326 -122
-519 -144 -580 -21 -57 -27 -63 -107 -117 -96 -64 -386 -215 -533 -278 -269
-114 -477 -121 -724 -24 -190 74 -574 294 -641 367 -50 53 -104 230 -152 492
-62 336 -207 805 -250 805 -13 0 -13 -141 1 -320 14 -170 8 -200 -40 -200 -40
0 -95 49 -128 113 -86 170 -112 566 -46 705 21 44 55 51 108 22 23 -13 49 -20
58 -17 32 12 51 150 62 432 10 264 37 398 113 550 96 195 268 357 502 475 174
87 395 166 554 196 115 22 367 12 491 -19z m-1207 -3479 c43 -26 72 -88 136
-288 84 -261 200 -549 381 -945 191 -416 276 -672 277 -828 1 -57 -3 -72 -20
-89 l-21 -21 -36 28 c-163 123 -609 861 -689 1138 -78 270 -129 1027 -69 1027
3 0 21 -10 41 -22z m1899 -19 c15 -43 16 -149 3 -315 -32 -416 -105 -754 -205
-954 -94 -187 -493 -785 -580 -870 -53 -51 -60 -36 -60 128 1 225 35 335 222
726 179 373 257 562 408 986 62 175 118 293 152 319 33 27 45 23 60 -20z
m-1612 -103 c64 -27 125 -76 146 -118 14 -28 24 -73 29 -138 15 -169 85 -313
222 -455 89 -93 173 -145 235 -145 94 0 234 114 340 276 76 118 111 211 122
328 5 52 16 107 24 122 33 62 136 134 192 134 25 0 26 -2 20 -32 -21 -99 -210
-538 -390 -904 -141 -287 -158 -308 -250 -319 -71 -9 -137 -1 -172 22 -45 30
-98 124 -317 563 -221 444 -275 566 -284 638 -4 40 -3 42 22 42 15 0 42 -6 61
-14z m938 -229 c48 -31 33 -82 -62 -211 -28 -38 -94 -121 -148 -183 l-98 -114
-68 73 c-141 152 -258 330 -283 431 l-6 28 319 -3 c285 -3 322 -5 346 -21z
m1168 -909 c117 -93 373 -278 612 -442 71 -48 127 -89 125 -91 -2 -2 -43 -13
-93 -25 -218 -54 -616 -30 -827 50 -88 33 -175 96 -223 162 -65 87 -80 141
-79 278 1 123 23 218 78 343 l26 58 133 -120 c72 -66 184 -162 248 -213z
m-2555 270 c33 -65 80 -199 100 -285 18 -80 12 -116 -38 -222 -73 -152 -198
-252 -380 -300 -133 -36 -228 -45 -453 -46 -201 0 -223 2 -259 20 -22 11 -42
25 -43 32 -6 17 66 81 195 174 311 222 561 419 652 514 59 62 178 165 190 165
5 0 22 -24 36 -52z m423 -836 l171 -242 -102 -133 c-55 -72 -104 -136 -109
-141 -20 -22 -739 244 -763 283 -13 20 12 39 67 51 118 28 204 91 407 294 79
80 147 142 151 138 4 -4 84 -116 178 -250z m1571 188 c59 -79 92 -107 135
-112 24 -2 31 -8 33 -30 5 -39 69 -92 203 -166 132 -73 163 -96 156 -116 -10
-27 -273 -140 -527 -227 -87 -30 -142 -43 -181 -43 -52 -1 -61 2 -105 40 -81
68 -109 115 -109 183 0 52 7 72 62 179 68 133 81 178 63 212 -11 21 -10 22 17
16 36 -8 87 23 143 87 23 26 45 47 50 47 4 0 31 -31 60 -70z m1770 -435 c209
-19 422 -50 524 -75 100 -25 149 -61 321 -234 207 -208 369 -416 450 -576 146
-289 237 -722 234 -1115 -2 -178 -7 -209 -34 -213 -44 -6 -218 140 -476 397
-220 220 -241 260 -355 677 -30 113 -63 222 -71 242 -42 102 -174 273 -325
423 -132 132 -212 195 -425 338 -101 67 -183 126 -183 130 0 4 3 11 7 14 11
12 159 8 333 -8z m-5023 -8 c11 -11 -22 -34 -139 -98 -150 -82 -296 -196 -469
-369 -270 -269 -330 -374 -425 -738 -42 -165 -104 -314 -170 -413 -120 -183
-639 -648 -678 -609 -16 16 -9 237 15 444 49 440 108 663 240 921 212 415 577
762 872 830 53 12 169 25 357 39 86 6 388 1 397 -7z m-1245 -44 c-17 -21 -79
-92 -139 -158 -142 -159 -194 -225 -292 -375 -85 -129 -220 -391 -266 -515
-47 -126 -65 -226 -100 -570 -52 -498 -87 -765 -121 -917 -37 -164 -44 -84
-44 532 0 638 15 933 57 1125 46 214 261 504 518 698 83 63 369 217 403 217 8
0 2 -15 -16 -37z m7293 -23 c195 -95 411 -252 510 -368 184 -218 268 -403 294
-652 25 -243 61 -1624 43 -1642 -36 -36 -95 288 -147 807 -44 441 -83 680
-137 845 -26 82 -127 283 -210 421 -133 221 -215 327 -371 481 -190 188 -187
209 18 108z m-5430 -24 c202 -50 591 -195 830 -311 153 -74 202 -108 176 -125
-29 -17 -386 -61 -776 -95 -343 -30 -508 -63 -694 -139 -59 -24 -297 -139
-528 -255 -313 -156 -424 -207 -431 -198 -15 19 -20 89 -11 147 53 337 698
883 1164 985 90 20 159 18 270 -9z m3835 -35 c356 -121 736 -414 946 -728 67
-100 94 -174 101 -275 5 -66 3 -78 -9 -78 -22 0 -251 107 -548 257 -464 234
-609 277 -1066 322 -115 12 -326 32 -469 46 -297 30 -388 43 -412 60 -15 11
-9 18 52 58 99 63 142 84 226 106 96 26 239 75 419 144 284 108 366 127 535
123 116 -2 140 -6 225 -35z m-2408 -114 c194 -145 306 -151 540 -32 61 31 121
55 138 55 28 0 34 -6 57 -56 23 -50 24 -60 14 -95 -7 -22 -32 -63 -56 -93 -24
-29 -51 -68 -60 -85 -37 -73 -60 -274 -105 -931 -17 -239 -42 -576 -55 -749
-29 -368 -30 -413 -9 -494 31 -122 94 -213 167 -242 23 -9 50 -24 60 -32 37
-34 10 -73 -50 -73 -66 0 -215 -96 -248 -160 -21 -40 -33 -129 -45 -320 -17
-284 -47 -423 -75 -352 -4 9 -11 114 -16 232 -15 382 -57 470 -281 586 l-91
47 89 86 c49 48 108 103 132 124 l43 38 -40 587 c-22 323 -52 763 -66 977 -14
215 -30 419 -35 455 -17 106 -47 192 -91 260 -23 36 -48 80 -56 99 -32 76 -4
231 42 231 7 0 50 -28 97 -63z m-267 -471 c98 -26 130 -59 147 -156 5 -33 13
-60 17 -60 4 0 17 14 29 30 48 65 54 14 7 -58 -43 -67 -43 -147 0 -971 18
-334 20 -715 5 -770 -26 -96 -295 -263 -590 -366 -138 -48 -197 -52 -405 -26
-345 43 -956 146 -1126 190 -157 40 -262 116 -326 237 -44 83 -59 141 -88 342
-27 183 -72 392 -150 689 -25 95 -48 204 -51 242 l-7 70 254 125 c744 363 853
392 1774 465 418 34 445 35 510 17z m1475 -6 c586 -42 933 -85 1115 -136 148
-42 406 -148 640 -264 257 -127 401 -217 412 -258 8 -33 -13 -138 -68 -337
-48 -178 -98 -409 -134 -630 -54 -327 -130 -465 -287 -521 -146 -51 -946 -193
-1331 -235 -95 -11 -129 -11 -180 0 -193 40 -635 256 -698 341 -48 64 -49 162
-9 996 46 977 50 1027 94 1056 18 13 158 9 446 -12z m-4116 -940 c22 -74 39
-290 32 -400 -27 -426 -297 -1414 -470 -1724 -179 -320 -768 -1079 -1081
-1391 -175 -176 -229 -196 -302 -119 -50 53 -68 126 -67 264 1 94 6 130 27
200 43 138 102 371 147 580 136 636 265 1008 465 1340 151 251 236 347 767
878 299 298 430 422 445 422 18 0 25 -10 37 -50z m6505 -26 c74 -55 549 -513
722 -697 348 -367 402 -441 533 -739 146 -333 246 -650 336 -1073 41 -192 107
-455 156 -620 23 -77 27 -110 28 -230 1 -127 -1 -145 -23 -193 -28 -61 -71
-102 -110 -102 -81 0 -253 170 -632 625 -650 780 -794 1051 -1004 1880 -99
394 -145 684 -145 926 0 127 13 234 32 257 18 21 44 13 107 -34z m-120 -1384
c187 -576 257 -736 451 -1029 189 -285 360 -507 545 -707 57 -62 115 -133 130
-159 24 -40 27 -53 22 -102 -7 -66 -87 -238 -140 -298 l-35 -40 -27 25 c-81
75 -572 865 -751 1205 -151 289 -267 666 -309 1005 -13 109 -21 504 -9 475 2
-5 57 -174 123 -375z m-6235 172 c-1 -188 -13 -293 -55 -500 -103 -501 -316
-938 -850 -1743 -110 -166 -202 -300 -203 -298 -2 2 -33 54 -69 115 -73 126
-117 228 -117 274 0 37 2 40 335 455 524 654 618 828 824 1526 108 366 108
366 124 350 8 -9 12 -60 11 -179z m5931 -113 c18 -63 31 -173 40 -336 6 -105
5 -123 -8 -123 -20 0 -299 92 -360 119 -44 19 -47 22 -36 42 35 65 304 349
331 349 12 0 22 -15 33 -51z m-5685 11 c39 -28 312 -338 303 -343 -27 -16
-331 -107 -357 -107 -62 0 -71 35 -56 224 18 236 38 277 110 226z m461 -130
c30 -6 173 -31 319 -55 385 -65 420 -74 420 -98 0 -26 -60 -106 -121 -161 -93
-84 -153 -84 -313 -2 -113 57 -316 187 -388 248 -61 50 -64 78 -9 78 21 0 63
-5 92 -10z m4799 -5 c11 -13 8 -21 -16 -46 -65 -68 -349 -255 -472 -311 -78
-36 -142 -39 -199 -9 -42 21 -213 195 -213 216 0 12 79 31 390 89 102 20 230
44 285 55 128 24 208 26 225 6z m-2796 -179 c86 -47 101 -107 93 -381 -6 -206
-19 -279 -65 -373 -56 -116 -196 -215 -362 -256 -116 -29 -270 -41 -357 -28
-145 23 -158 45 -158 272 0 184 11 241 67 357 66 135 182 231 423 349 200 98
270 109 359 60z m901 -1 c105 -39 311 -147 392 -204 131 -94 173 -167 220
-381 19 -82 26 -147 27 -225 1 -100 -1 -114 -23 -149 -35 -56 -92 -78 -216
-84 -283 -12 -595 133 -669 311 -57 139 -71 477 -25 642 12 44 75 111 111 118
39 8 120 -4 183 -28z m-2900 -204 c126 -45 308 -150 322 -187 8 -21 -32 -61
-160 -159 l-108 -83 -87 45 c-48 26 -125 71 -172 101 -99 63 -220 183 -220
218 0 25 46 58 113 80 62 20 235 12 312 -15z m4967 18 c55 -12 142 -51 153
-69 18 -29 -101 -153 -222 -232 -37 -25 -111 -68 -164 -96 l-96 -50 -118 91
c-64 51 -125 104 -134 120 -14 25 -14 30 -1 55 18 31 147 112 229 143 119 44
253 59 353 38z m-3952 -99 c0 -17 -16 -71 -35 -121 -75 -195 -87 -337 -120
-1449 -25 -824 -39 -948 -108 -938 -30 4 -43 60 -56 246 -29 394 -49 1404 -32
1597 22 249 107 522 192 620 38 43 93 74 132 75 24 0 27 -4 27 -30z m2746 -15
c82 -54 162 -207 218 -415 54 -202 62 -392 47 -1100 -17 -796 -31 -995 -69
-1008 -7 -2 -27 11 -46 30 -25 25 -37 48 -45 88 -25 126 -40 412 -61 1205 -17
616 -33 859 -65 985 -7 30 -34 98 -59 150 -24 52 -42 98 -39 103 10 16 66 -2
119 -38z m1578 -61 c13 -34 4 -74 -35 -155 -49 -103 -339 -580 -348 -575 -3 3
-40 70 -81 150 l-74 146 25 26 c13 14 76 61 140 104 143 97 220 166 266 239
19 31 42 62 51 69 22 17 49 15 56 -4z m-5916 -56 c94 -119 196 -203 363 -302
83 -49 96 -60 92 -79 -8 -34 -110 -239 -133 -267 l-20 -25 -36 40 c-95 107
-333 557 -342 645 -6 69 13 66 76 -12z m1130 -114 c4 -28 -65 -262 -89 -301
-22 -35 -54 -49 -93 -39 -32 8 -116 66 -133 93 -14 20 -11 25 29 69 51 55 188
167 232 188 37 19 50 16 54 -10z m3658 0 c38 -25 264 -243 264 -254 0 -12
-242 -132 -249 -124 -10 11 -70 240 -81 308 -8 50 1 96 18 96 5 0 27 -12 48
-26z m-1824 -204 c14 -11 29 -32 32 -47 4 -16 11 -244 16 -508 5 -284 16 -552
25 -655 9 -96 19 -249 22 -340 5 -151 4 -170 -16 -225 -35 -99 -44 -224 -38
-525 8 -388 15 -416 143 -549 41 -43 74 -82 74 -88 0 -5 -22 -59 -50 -121 -96
-218 -111 -276 -129 -502 -20 -241 -51 -1389 -66 -2435 -7 -429 4 -745 25
-785 23 -43 94 -65 210 -65 159 0 206 18 301 114 133 135 213 327 419 997 212
690 415 1320 429 1328 4 3 57 -15 117 -40 219 -91 421 -152 644 -195 63 -12
119 -25 123 -29 4 -4 -67 -54 -159 -110 -303 -188 -427 -295 -547 -477 -121
-182 -197 -340 -399 -828 -274 -665 -499 -1047 -787 -1336 -231 -230 -394
-319 -517 -279 -171 56 -561 467 -758 799 -128 216 -203 378 -493 1066 -86
204 -205 440 -281 557 -126 191 -259 311 -564 508 -81 52 -148 97 -148 100 0
3 75 20 166 39 207 41 377 92 569 170 82 33 153 57 156 53 4 -4 107 -331 229
-727 410 -1335 457 -1453 652 -1629 80 -73 121 -86 271 -86 l119 0 33 33 c63
63 74 159 75 612 0 193 -4 535 -10 760 -5 226 -14 606 -20 845 -18 758 -34
1056 -66 1230 -8 46 -45 174 -80 283 l-65 198 90 95 c137 143 134 119 101 814
-5 107 -9 443 -9 745 -1 732 18 1135 55 1207 26 50 66 60 106 28z m-2237 -219
c84 -49 247 -183 287 -236 62 -81 69 -120 75 -385 5 -199 4 -233 -8 -224 -8 6
-75 56 -149 111 -393 293 -482 434 -391 618 34 69 98 145 122 145 8 0 37 -13
64 -29z m4508 -13 c95 -100 124 -232 75 -340 -33 -71 -76 -118 -207 -227 -197
-163 -335 -261 -348 -247 -14 13 -22 118 -22 291 -1 158 1 184 17 210 68 110
358 355 421 355 15 0 39 -15 64 -42z m-1629 -274 c196 -34 366 -108 472 -207
75 -70 83 -106 91 -388 6 -220 -6 -403 -30 -477 l-12 -37 -140 2 c-148 1 -350
21 -550 53 -174 28 -194 35 -210 74 -50 120 -87 877 -47 953 11 21 47 36 112
47 43 8 221 -4 314 -20z m-1021 9 l67 -6 0 -301 c0 -331 -13 -553 -36 -634
-28 -100 -78 -114 -622 -168 -272 -28 -272 -28 -299 -8 -50 38 -55 73 -49 359
7 371 30 462 142 565 92 83 288 164 459 189 74 11 248 13 338 4z m-2037 -381
c50 -37 188 -146 307 -242 l215 -175 7 -194 c8 -209 3 -337 -14 -354 -25 -25
-171 79 -348 248 -137 129 -201 212 -219 278 -48 188 -77 508 -45 507 3 0 47
-31 97 -68z m4865 52 c17 -21 1 -137 -51 -349 -59 -245 -65 -258 -173 -361
-143 -138 -369 -314 -403 -314 -7 0 -16 10 -20 23 -11 34 -7 383 6 462 10 63
15 75 58 118 96 99 532 437 563 437 3 0 12 -7 20 -16z m2841 -340 c140 -79
236 -154 364 -286 184 -190 274 -348 383 -674 77 -228 127 -411 300 -1089 185
-729 259 -983 362 -1242 123 -312 287 -570 539 -844 44 -48 80 -90 80 -93 0
-3 -54 -6 -119 -6 l-119 0 -78 128 c-42 70 -186 291 -319 492 -381 574 -472
736 -802 1425 -85 176 -185 377 -223 447 -188 343 -406 639 -733 997 -262 285
-366 434 -393 563 -10 41 -14 83 -11 92 11 29 51 17 136 -40 111 -75 155 -94
219 -94 102 0 150 37 238 186 31 52 61 94 66 94 6 0 55 -25 110 -56z m-10511
16 c4 -8 11 -32 14 -52 8 -52 61 -117 125 -155 96 -58 176 -42 331 67 85 59
109 61 122 10 31 -120 -32 -228 -321 -551 -338 -378 -432 -493 -567 -694 -140
-210 -184 -290 -496 -915 -385 -769 -521 -1004 -846 -1465 -81 -116 -184 -272
-228 -348 l-80 -136 -123 -1 -122 0 114 136 c210 251 360 470 472 690 97 192
133 315 389 1324 247 972 331 1262 408 1402 75 138 169 260 302 394 218 219
469 364 506 294z m9608 -387 c72 -124 213 -299 438 -545 140 -152 243 -276
243 -291 0 -17 -61 2 -169 52 -182 83 -436 168 -586 197 -19 3 -37 13 -39 23
-22 73 -88 379 -93 431 -6 76 3 105 72 211 l47 72 22 -39 c12 -21 41 -72 65
-111z m-8720 44 c59 -117 66 -200 28 -357 -55 -229 -90 -276 -224 -306 -114
-25 -284 -85 -432 -154 -135 -62 -191 -81 -191 -62 0 15 108 150 215 267 243
267 358 413 450 571 64 111 84 136 99 131 6 -1 31 -42 55 -90z m1987 -283
c153 -103 304 -222 391 -311 82 -82 99 -105 147 -205 30 -62 64 -141 75 -175
35 -105 26 -133 -41 -133 -173 0 -582 280 -674 462 -31 61 -40 159 -25 271 13
94 27 137 46 137 6 0 42 -21 81 -46z m4702 14 c19 -39 26 -193 13 -278 -16
-103 -52 -172 -130 -251 -106 -106 -349 -253 -476 -288 -63 -17 -119 -14 -139
8 -17 18 -17 23 -2 76 27 90 90 227 137 296 88 130 352 355 524 448 47 25 56
23 73 -11z m-2823 -88 c73 -28 110 -63 125 -119 13 -51 14 -494 1 -587 -21
-142 -54 -159 -351 -185 -80 -7 -242 -13 -361 -13 l-215 -1 -59 30 c-41 21
-68 44 -91 78 -43 62 -56 111 -55 206 2 232 174 472 403 561 120 47 211 60
388 56 133 -2 163 -6 215 -26z m1349 5 c118 -25 186 -64 286 -164 139 -139
206 -292 198 -445 -7 -128 -65 -217 -180 -278 -59 -31 -215 -35 -503 -14 -275
21 -337 31 -375 63 -108 90 -134 633 -38 764 29 39 93 77 149 89 67 14 371 4
463 -15z m-5323 -435 c29 -16 24 -58 -19 -158 -113 -260 -375 -690 -605 -992
-288 -380 -747 -908 -747 -861 0 18 89 168 235 396 202 316 357 586 550 960
131 252 215 401 288 508 48 71 69 93 108 113 78 39 154 53 190 34z m8954 -10
c80 -24 154 -133 342 -505 228 -453 402 -758 633 -1110 173 -264 227 -355 212
-355 -12 0 -244 243 -382 400 -383 434 -731 945 -906 1330 -75 165 -88 204
-79 237 6 25 7 25 73 20 37 -3 85 -11 107 -17z m-9501 -227 c-94 -214 -440
-836 -652 -1173 -267 -424 -1011 -1444 -1181 -1619 -58 -60 -90 -70 -138 -47
-32 15 -35 20 -29 47 7 38 53 105 220 319 327 419 556 784 862 1372 75 145
185 356 244 469 137 263 195 352 278 431 86 80 365 256 409 258 9 0 4 -19 -13
-57z m9979 -2 c216 -114 350 -229 437 -376 29 -49 153 -286 275 -525 373 -732
503 -946 875 -1446 324 -435 357 -504 239 -504 -17 0 -38 4 -48 10 -72 38
-946 1231 -1215 1657 -239 379 -676 1163 -676 1213 0 20 40 9 113 -29z m-7303
-129 c332 -351 498 -644 593 -1047 48 -200 58 -345 31 -434 -39 -133 -205
-235 -429 -263 -177 -22 -302 11 -444 119 l-73 57 6 255 c23 870 31 1036 63
1176 16 74 99 275 113 275 5 0 67 -62 140 -138z m4719 45 c40 -99 81 -253 98
-367 22 -147 26 -803 5 -1000 -17 -157 -47 -298 -70 -330 -58 -79 -341 -112
-550 -64 -126 28 -216 94 -264 191 l-33 68 1 155 c1 242 44 411 169 665 100
205 251 418 420 594 93 97 167 153 190 145 7 -3 23 -29 34 -57z m-3978 -230
c26 -8 63 -26 82 -41 43 -33 136 -72 246 -102 46 -13 85 -25 87 -27 2 -2 -54
-34 -124 -71 -149 -79 -222 -129 -222 -154 0 -23 -70 -130 -89 -137 -25 -10
-69 49 -147 197 -90 168 -136 274 -138 312 -1 23 4 31 24 38 37 11 228 1 281
-15z m3324 14 c20 -4 31 -13 33 -27 8 -53 -257 -544 -293 -544 -12 0 -19 11
-50 82 -25 55 -117 135 -268 234 l-132 87 140 37 c153 40 202 58 256 96 20 13
56 28 80 33 51 10 191 11 234 2z m-980 -276 c109 -31 288 -118 370 -180 125
-94 156 -166 162 -380 6 -171 -6 -263 -62 -492 -60 -241 -252 -872 -486 -1593
-205 -632 -241 -719 -356 -840 -61 -65 -146 -121 -161 -106 -18 19 -23 520
-18 1870 l5 1480 48 70 c81 118 141 176 198 192 69 19 189 11 300 -21z m-1313
4 c49 -13 102 -75 155 -180 60 -119 71 -181 84 -449 12 -240 5 -2642 -7 -2857
-7 -119 -6 -119 -99 -74 -85 40 -134 98 -204 243 -80 165 -138 332 -351 1014
-408 1302 -457 1496 -448 1748 9 231 87 338 345 469 110 55 174 80 254 97 50
10 216 4 271 -11z m-2278 -1646 c8 -38 27 -147 41 -243 53 -353 119 -653 210
-945 317 -1016 473 -1626 544 -2125 83 -578 80 -1186 -10 -1750 -64 -405 -270
-1313 -320 -1413 -48 -95 -195 -267 -228 -267 -69 0 -175 445 -300 1260 -159
1035 -311 2567 -311 3135 0 682 118 1729 246 2178 29 103 87 237 103 237 5 0
16 -30 25 -67z m5610 15 c38 -60 118 -388 165 -673 112 -683 146 -1506 96
-2325 -72 -1166 -279 -2841 -425 -3425 -48 -193 -120 -315 -185 -315 -103 0
-214 291 -360 940 -194 858 -263 1434 -225 1870 33 383 127 928 246 1435 78
333 143 565 314 1130 137 453 220 793 260 1072 11 76 25 163 31 193 23 113 52
147 83 98z m-5289 -63 c53 -21 144 -113 175 -175 78 -154 175 -527 681 -2600
348 -1424 377 -1556 414 -1849 25 -196 17 -425 -18 -539 -39 -124 -65 -386
-87 -882 -28 -631 -56 -872 -118 -1030 -31 -79 -50 -110 -67 -110 -43 0 -61
219 -90 1105 -53 1630 -108 2364 -229 3045 -85 477 -169 791 -426 1585 -294
912 -366 1181 -358 1348 3 68 6 81 27 98 28 23 50 24 96 4z m5016 -6 c20 -20
21 -29 16 -118 -9 -150 -81 -418 -282 -1051 -303 -953 -397 -1285 -484 -1711
-136 -667 -178 -1151 -231 -2669 -44 -1234 -70 -1630 -110 -1655 -25 -15 -85
139 -119 305 -46 222 -73 477 -96 902 -31 581 -52 803 -90 929 -52 172 -30
350 125 1044 145 644 726 3045 841 3473 85 318 109 370 221 479 89 88 167 114
209 72z m3845 -374 c117 -130 181 -209 205 -257 17 -34 18 -41 5 -70 -7 -18
-26 -45 -42 -59 -77 -70 -89 -54 -210 304 -66 193 -70 208 -56 192 5 -6 49
-55 98 -110z m-12746 51 c0 -50 -127 -397 -161 -440 -19 -24 -22 -25 -48 -11
-35 17 -91 80 -91 101 0 24 17 51 112 175 93 123 161 199 178 199 5 0 10 -11
10 -24z m4422 -53 c170 -163 398 -621 541 -1088 89 -289 90 -316 24 -515 -56
-170 -102 -274 -118 -264 -18 11 -74 139 -112 260 -54 165 -104 351 -226 839
-61 242 -128 503 -150 580 -46 163 -55 209 -47 230 9 25 25 18 88 -42z m3898
20 c0 -57 -192 -857 -304 -1268 -102 -373 -194 -645 -217 -645 -43 0 -132 307
-145 500 -8 113 1 161 63 354 106 331 266 680 388 851 68 96 190 235 206 235
5 0 9 -12 9 -27z m-8987 -368 c62 -71 100 -100 192 -146 182 -92 211 -139 209
-344 -1 -160 -24 -324 -74 -520 -57 -223 -123 -380 -170 -405 -29 -16 -63 23
-110 123 -79 171 -121 332 -155 592 -30 221 -38 250 -84 296 -38 38 -48 42
-328 129 -73 22 -133 44 -133 48 0 5 43 61 95 125 l95 117 183 3 c100 1 199 3
220 5 30 2 43 -3 60 -23z m14290 6 l198 -6 89 -105 c50 -58 90 -110 90 -117 0
-12 -90 -44 -240 -83 -99 -27 -205 -72 -237 -102 -25 -24 -49 -116 -88 -342
-29 -173 -44 -234 -87 -366 -41 -128 -100 -249 -137 -284 l-31 -30 -24 23
c-76 72 -159 380 -206 760 -22 184 -25 276 -9 318 29 76 146 176 232 198 44
12 62 24 112 79 66 71 78 78 115 69 14 -3 114 -9 223 -12z m579 -406 c207 -22
265 -34 298 -62 107 -89 736 -832 846 -998 38 -57 39 -85 3 -85 -43 0 -206 63
-331 127 -195 100 -280 188 -308 320 -23 104 -41 117 -365 252 -223 92 -416
176 -610 266 l-80 37 45 40 c61 54 112 87 157 104 50 17 176 17 345 -1z
m-15463 -5 c126 -14 188 -35 205 -68 8 -17 11 -35 6 -48 -22 -58 -171 -138
-545 -294 -367 -153 -407 -180 -446 -297 -12 -37 -32 -84 -44 -104 -52 -82
-211 -194 -374 -264 -127 -54 -250 -81 -265 -57 -17 27 563 732 783 953 128
127 186 163 286 178 84 12 294 13 394 1z m15297 -505 c219 -108 437 -214 482
-238 l84 -42 244 -499 c344 -702 409 -851 402 -913 -4 -36 -26 -33 -95 13
-186 127 -408 387 -523 614 -87 173 -99 279 -40 368 30 45 35 67 24 96 -15 40
-74 5 -215 -124 -160 -147 -252 -207 -400 -261 -124 -45 -209 -60 -378 -66
l-154 -6 6 -101 c41 -662 29 -834 -55 -844 -63 -8 -85 35 -112 221 -17 110
-76 743 -76 807 0 26 44 151 134 382 150 385 225 596 252 711 9 42 18 77 19
77 1 0 181 -88 401 -195z m-15008 172 c6 -7 27 -72 46 -143 41 -153 115 -349
258 -684 l105 -245 -13 -205 c-48 -761 -64 -872 -128 -901 -38 -18 -82 5 -108
55 -32 62 -34 212 -9 503 27 307 27 380 4 386 -36 10 -91 17 -221 27 -209 17
-315 44 -459 119 -111 58 -207 134 -293 234 -83 96 -114 122 -135 113 -22 -8
-18 -53 11 -137 19 -54 27 -96 27 -154 2 -73 -1 -86 -32 -145 -87 -167 -233
-362 -391 -520 -123 -123 -219 -196 -244 -187 -56 22 17 203 375 927 l250 505
462 233 c254 127 466 232 473 232 6 0 16 -6 22 -13z m6325 -850 c84 -109 180
-240 215 -290 74 -107 160 -278 198 -392 65 -198 89 -442 60 -630 -35 -226
-151 -678 -231 -898 -50 -139 -138 -352 -142 -341 -1 5 -21 118 -43 251 -45
276 -94 510 -151 728 -190 727 -263 1037 -275 1161 -8 89 1 133 89 433 l71
244 29 -34 c16 -19 97 -123 180 -232z m2196 134 c28 -60 51 -129 150 -440 l17
-55 -48 -205 c-44 -185 -112 -454 -289 -1142 -72 -279 -107 -465 -119 -634
-19 -255 -33 -256 -130 -11 -107 271 -213 618 -245 801 -22 124 -31 486 -16
656 14 171 29 229 92 357 111 224 488 742 541 742 9 0 28 -28 47 -69z m-9252
-451 c18 -11 66 -46 107 -79 41 -32 85 -66 97 -75 l23 -15 -18 -83 c-48 -229
-114 -450 -195 -653 -54 -135 -149 -321 -182 -360 -43 -49 -103 -78 -162 -79
-65 -1 -91 28 -82 88 23 137 301 1190 330 1246 18 35 38 37 82 10z m16160 -55
c70 -205 329 -1167 335 -1245 l3 -35 -60 -3 c-87 -5 -126 10 -179 69 -144 161
-355 736 -372 1019 -6 89 -5 97 17 129 26 36 194 144 218 139 8 -2 25 -34 38
-73z m-11487 -102 c0 -5 5 -35 10 -68 17 -105 68 -568 105 -960 71 -755 135
-1305 224 -1930 96 -673 100 -773 36 -1115 -111 -596 -177 -734 -389 -804 -76
-26 -80 -18 -72 135 3 69 17 238 31 375 54 548 55 667 10 1214 -61 730 -80
1214 -72 1830 6 461 12 569 47 920 25 244 50 410 61 410 5 0 9 -3 9 -7z m6754
-57 c23 -91 79 -652 96 -956 19 -340 14 -551 -30 -1320 -57 -1000 -62 -1699
-15 -2180 8 -85 15 -200 16 -255 0 -91 -2 -101 -21 -117 -26 -21 -50 -17 -132
22 -146 71 -166 112 -258 545 -91 426 -111 603 -91 815 7 69 39 312 71 540
104 726 164 1257 265 2330 19 206 40 409 45 450 18 134 39 183 54 126z m4312
-13 c25 -38 34 -94 69 -433 67 -652 76 -806 50 -816 -47 -18 -123 47 -155 133
-57 150 -280 991 -280 1053 0 40 29 57 137 80 121 26 152 23 179 -17z m-15190
7 c54 -11 102 -24 106 -28 19 -19 -207 -905 -281 -1103 -40 -105 -116 -151
-149 -89 -23 43 1 438 59 970 22 200 33 256 52 263 28 12 121 6 213 -13z
m9419 -2980 c151 -569 222 -1000 232 -1405 6 -244 -8 -361 -56 -493 -37 -99
-39 -147 -10 -178 l21 -22 -44 0 c-51 1 -95 -20 -144 -68 -26 -27 -35 -43 -31
-60 3 -20 -1 -25 -28 -30 -52 -9 -69 -2 -89 40 -17 34 -19 70 -24 315 -8 483
39 2117 65 2246 7 36 9 30 108 -345z m-3751 283 c34 -327 72 -1508 63 -2003
-8 -429 -22 -503 -93 -486 -33 9 -116 93 -213 218 l-72 93 1 405 c1 690 18
815 195 1475 77 287 97 355 105 355 4 0 10 -26 14 -57z m-540 -2183 c54 -164
216 -381 391 -526 64 -52 95 -85 95 -98 0 -38 -78 -478 -114 -648 -20 -91 -47
-199 -60 -240 -53 -160 -308 -701 -566 -1198 -276 -532 -329 -653 -395 -903
-81 -309 -122 -633 -200 -1592 -54 -671 -78 -876 -99 -855 -16 16 -21 1096 -7
1600 6 223 20 540 31 705 29 454 39 727 51 1452 l11 661 -157 309 c-87 169
-161 313 -166 318 -8 11 69 570 96 693 20 87 29 95 200 179 246 119 342 258
436 630 38 154 55 199 83 222 8 7 48 17 88 22 120 14 166 29 211 66 l42 36 6
-389 c5 -337 8 -396 23 -444z m4809 770 c39 -12 110 -23 157 -27 48 -3 95 -12
108 -20 33 -20 61 -90 121 -297 74 -257 110 -329 219 -435 105 -103 177 -148
258 -161 73 -12 103 -42 133 -139 35 -109 101 -543 101 -661 0 -77 -11 -106
-96 -241 -171 -274 -206 -397 -220 -769 -11 -306 29 -1365 75 -1980 23 -295
33 -835 28 -1415 -6 -575 -10 -675 -27 -675 -22 0 -63 393 -140 1340 -66 810
-133 1140 -308 1528 -33 73 -130 263 -215 424 -339 638 -529 1065 -631 1416
-43 149 -113 487 -122 593 -13 150 12 207 119 267 91 51 256 263 306 393 76
194 100 477 62 721 -11 76 -21 142 -21 148 0 14 10 13 93 -10z m1132 -50 c8
-25 -3 -80 -16 -80 -5 0 -9 23 -9 50 0 51 13 67 25 30z m-1771 -1343 c15 -19
26 -41 26 -50 0 -27 -28 -20 -43 11 -38 73 -27 97 17 39z m-5340 -933 c20 -36
43 -91 51 -121 49 -189 45 -1066 -10 -1893 -29 -442 -47 -937 -65 -1825 -29
-1407 -94 -2003 -243 -2222 -39 -57 -61 -73 -79 -55 -23 23 -21 205 6 498 48
531 51 590 51 1274 -1 747 -5 812 -76 1073 -48 178 -137 479 -209 702 -124
390 -135 462 -134 910 0 547 5 563 344 1085 179 276 225 357 245 425 18 64 74
215 80 215 2 0 20 -30 39 -66z m7177 -118 c99 -214 180 -358 339 -601 231
-354 258 -442 267 -881 9 -419 -5 -507 -167 -1034 -121 -395 -204 -693 -230
-820 -38 -190 -45 -333 -45 -860 1 -504 7 -645 46 -1135 11 -137 23 -346 26
-462 5 -194 5 -213 -11 -219 -40 -15 -96 81 -150 258 -102 338 -135 722 -166
1928 -31 1225 -63 2047 -96 2450 -43 535 -23 1236 41 1424 22 65 55 140 59
135 2 -2 41 -85 87 -183z m-1206 -1146 c75 -132 261 -551 326 -732 108 -302
124 -420 204 -1520 54 -747 64 -997 39 -1005 -38 -13 -555 1126 -700 1541 -95
273 -114 602 -58 1011 13 93 114 690 130 764 6 30 13 23 59 -59z m-4819 -15
c38 -91 96 -408 126 -680 8 -73 13 -244 13 -440 0 -361 -5 -395 -84 -632 -75
-223 -324 -789 -547 -1239 -114 -232 -146 -286 -160 -272 -24 24 123 1991 166
2218 27 146 130 421 294 789 132 297 159 333 192 256z m-2041 -660 c14 -160
80 -446 174 -755 188 -620 249 -919 272 -1321 12 -224 4 -457 -36 -969 -57
-751 -60 -1147 -9 -1302 20 -61 63 -98 114 -98 22 0 88 19 153 45 116 45 151
53 161 36 15 -24 69 -376 70 -456 1 -88 0 -93 -46 -187 -73 -148 -98 -265
-143 -648 -58 -504 -108 -806 -164 -981 -63 -198 -65 -214 -62 -364 8 -315 8
-313 -28 -390 -44 -96 -116 -209 -152 -239 -38 -33 -66 -33 -197 -1 -208 50
-218 75 -100 236 103 140 143 233 119 278 -28 51 -82 14 -281 -187 -141 -143
-213 -185 -195 -113 3 14 37 83 76 152 74 136 85 179 46 179 -34 0 -112 -53
-202 -138 -44 -41 -100 -88 -124 -104 -89 -56 -99 -29 -36 96 35 70 47 105 47
140 2 92 -23 87 -157 -29 -94 -80 -177 -135 -207 -135 -30 0 -21 40 27 120 46
77 55 110 31 110 -7 0 -57 -29 -111 -65 -60 -40 -102 -62 -107 -57 -31 31 213
356 497 662 231 249 262 312 373 765 95 384 104 579 40 830 -29 115 -34 225
-13 304 18 71 67 174 155 326 176 304 240 672 227 1300 -11 486 -52 916 -177
1815 -98 710 -113 942 -76 1154 22 120 29 118 41 -9z m8874 -256 c2 -301 -22
-544 -148 -1479 -134 -990 -141 -1693 -21 -2153 38 -147 70 -230 137 -357 31
-58 76 -142 100 -187 54 -102 77 -201 68 -293 -3 -36 -19 -146 -36 -244 -48
-292 -42 -348 71 -771 128 -475 133 -486 380 -750 199 -213 369 -428 446 -562
68 -119 56 -134 -46 -56 -80 62 -112 83 -127 83 -25 0 -13 -44 33 -122 89
-151 19 -146 -173 13 -101 85 -150 113 -178 103 -33 -13 -27 -49 29 -164 76
-154 74 -195 -7 -147 -23 14 -82 62 -130 106 -143 133 -198 165 -213 126 -13
-34 11 -92 81 -195 101 -148 110 -193 28 -151 -49 25 -118 87 -273 243 -126
127 -165 153 -195 128 -33 -28 -15 -77 85 -235 108 -170 132 -241 94 -279 -19
-20 -36 -24 -149 -36 -49 -6 -103 -13 -118 -16 -25 -6 -36 1 -91 58 -77 78
-151 202 -167 277 -8 42 -8 89 1 195 14 163 5 260 -36 378 -75 217 -146 624
-194 1103 -33 336 -55 441 -117 574 -48 103 -52 115 -63 190 -6 42 -6 101 0
161 11 103 58 377 69 397 5 9 30 -2 86 -37 138 -86 243 -107 295 -58 31 29 45
66 70 193 21 102 22 127 16 335 -3 124 -17 360 -31 525 -52 631 -58 730 -59
1050 0 249 4 352 17 465 37 299 91 537 213 935 138 452 191 656 213 820 21
151 24 159 32 80 3 -38 7 -149 8 -246z m-1000 -4937 c6 -11 15 -118 21 -238
12 -217 8 -274 -20 -274 -26 0 -136 196 -147 263 -11 69 79 267 122 267 8 0
19 -8 24 -18z m-6799 -88 c49 -97 48 -167 -3 -278 -42 -90 -81 -146 -102 -146
-32 0 -40 42 -40 205 0 174 14 259 46 294 19 20 23 21 42 8 12 -8 38 -45 57
-83z"/>
<path d="M8694 32779 c-98 -13 -159 -32 -159 -49 0 -20 60 -58 119 -75 28 -8
120 -21 204 -29 217 -21 254 -45 153 -98 -65 -34 -123 -36 -204 -8 -83 29
-167 26 -167 -7 0 -38 174 -153 244 -160 55 -7 121 23 185 82 43 39 46 40 115
40 66 0 71 2 74 22 9 60 -131 223 -227 266 -54 23 -222 32 -337 16z"/>
<path d="M9935 32781 c-60 -16 -111 -50 -178 -119 -73 -76 -102 -130 -92 -170
6 -24 8 -24 61 -18 67 8 100 -5 173 -67 62 -53 108 -72 156 -63 37 7 117 64
209 148 l60 54 -135 -13 c-177 -17 -329 2 -329 41 0 20 52 33 228 57 172 22
260 38 285 51 39 20 11 55 -68 83 -55 19 -315 31 -370 16z"/>
<path d="M9175 31866 c-72 -124 -95 -234 -58 -284 62 -83 337 -134 503 -93 73
18 158 62 194 99 25 27 28 35 21 69 -8 45 -74 188 -102 222 -30 37 -58 22 -49
-27 3 -20 9 -65 13 -100 5 -57 4 -65 -17 -87 -66 -70 -334 -88 -427 -29 -27
17 -30 59 -12 161 6 35 8 74 5 88 -10 40 -41 32 -71 -19z"/>
<path d="M9142 31319 c-94 -10 -146 -28 -161 -57 -15 -28 11 -48 89 -67 47
-12 134 -18 320 -22 344 -7 524 11 566 59 16 17 16 19 -1 38 -24 27 -64 38
-175 50 -113 12 -521 11 -638 -1z"/>
<path d="M9355 31100 c-118 -8 -160 -26 -170 -70 -4 -16 -4 -34 0 -40 23 -37
203 -74 331 -68 131 7 217 63 201 130 -5 18 -17 29 -39 36 -46 14 -205 20
-323 12z"/>
<path d="M6995 11500 c-10 -31 11 -154 72 -415 41 -178 57 -269 62 -352 4 -62
12 -118 18 -124 19 -19 46 -6 79 38 93 121 97 261 18 508 -36 109 -116 272
-160 323 -40 47 -78 56 -89 22z"/>
<path d="M6342 10950 c-12 -5 -27 -21 -32 -35 -19 -50 9 -114 84 -193 131
-139 357 -249 468 -228 43 8 88 41 88 65 0 30 -61 78 -180 142 -139 75 -249
147 -312 205 -26 24 -51 44 -57 44 -5 0 -15 2 -23 4 -7 3 -23 1 -36 -4z"/>
<path d="M11851 11515 c-66 -75 -148 -279 -187 -465 -10 -48 -18 -131 -18
-190 -1 -122 14 -163 85 -224 56 -48 69 -47 69 7 0 76 30 289 61 429 59 269
74 411 49 459 -15 27 -23 24 -59 -16z"/>
<path d="M12543 10945 c-18 -8 -54 -34 -80 -58 -59 -53 -131 -97 -286 -172
-183 -89 -228 -146 -147 -188 28 -14 52 -17 116 -14 70 3 93 9 165 44 148 71
257 167 305 268 27 56 30 84 12 107 -19 24 -49 29 -85 13z"/>
</g>
</svg>
