<?xml version="1.0" standalone="no"?>
<!DOCTYPE svg PUBLIC "-//W3C//DTD SVG 20010904//EN"
 "http://www.w3.org/TR/2001/REC-SVG-20010904/DTD/svg10.dtd">
<svg version="1.0" xmlns="http://www.w3.org/2000/svg"
 width="1895.000000pt" height="3500.000000pt" viewBox="0 0 1895.000000 3500.000000"
 preserveAspectRatio="xMidYMid meet">

<g transform="translate(0.000000,3500.000000) scale(0.100000,-0.100000)"
fill="#000000" stroke="none">
<path d="M10460 29808 c-6 -24 -27 -101 -46 -173 -27 -103 -37 -163 -45 -289
l-11 -159 178 -178 179 -179 218 -65 c119 -36 236 -65 258 -65 70 0 549 117
572 139 5 5 -256 212 -580 462 -323 249 -616 475 -650 501 l-62 49 -11 -43z"/>
<path d="M7752 29308 c-326 -281 -591 -512 -589 -515 3 -2 134 -18 292 -34
l286 -30 216 31 216 31 218 170 c120 94 221 174 223 178 3 4 -9 92 -25 195
l-30 189 -100 143 c-55 79 -104 145 -107 148 -4 2 -274 -226 -600 -506z"/>
<path d="M12115 28661 l-420 -26 260 -193 c214 -160 288 -222 418 -350 175
-173 174 -171 276 -359 69 -128 72 -137 101 -285 47 -241 48 -243 162 -416
104 -156 105 -158 359 -398 l255 -242 74 -21 c41 -11 79 -26 86 -33 35 -39
203 -316 265 -439 l73 -144 13 190 c10 149 11 295 3 670 -6 264 -10 595 -10
736 l0 257 -45 131 c-77 224 -83 236 -191 346 -53 55 -169 178 -257 272 -127
138 -167 175 -196 183 -156 42 -719 151 -770 149 -20 -1 -225 -14 -456 -28z"/>
<path d="M6070 28620 c-216 -42 -461 -94 -520 -110 -31 -8 -67 -42 -197 -183
-88 -94 -204 -217 -257 -272 -108 -110 -114 -122 -191 -346 l-45 -131 0 -262
c0 -144 -5 -468 -11 -720 l-10 -458 32 -150 c38 -172 25 -171 124 -8 34 58 97
158 139 222 l76 116 57 17 c32 9 67 19 78 22 11 3 134 114 274 247 253 240
255 242 359 398 114 173 115 175 162 416 29 148 32 157 101 285 103 189 101
186 280 363 153 149 181 172 412 329 136 92 245 170 243 172 -4 5 -870 93
-896 92 -8 0 -103 -18 -210 -39z"/>
<path d="M7540 28531 l-306 -26 -229 -180 c-127 -98 -285 -222 -353 -275 -120
-92 -127 -100 -248 -269 -141 -199 -132 -166 -114 -397 9 -109 27 -198 120
-579 60 -247 137 -573 172 -723 34 -151 67 -280 73 -287 5 -7 176 -84 379
-170 l369 -157 201 -13 c110 -7 311 -18 446 -25 240 -12 249 -11 458 14 l213
26 167 127 c92 69 202 154 245 187 l78 61 -6 315 c-3 173 -12 534 -21 803
l-15 487 -106 278 c-58 152 -111 282 -117 289 -12 13 -633 341 -878 464 -109
55 -168 79 -190 78 -18 -1 -170 -13 -338 -28z"/>
<path d="M10967 28444 l-408 -74 -322 -146 c-177 -80 -327 -151 -334 -157 -12
-12 -35 -163 -92 -602 -28 -218 -38 -367 -70 -1060 -22 -470 -23 -500 -12
-527 14 -37 79 -106 173 -185 87 -72 117 -86 456 -207 l213 -76 367 40 c202
22 457 49 567 59 l200 18 230 86 c127 47 242 90 257 95 14 6 29 19 32 29 3 10
71 272 151 583 81 311 175 666 211 790 35 123 64 236 64 250 0 14 -13 95 -29
180 l-30 155 -288 284 c-282 277 -290 284 -378 326 -112 53 -520 215 -537 214
-7 -1 -197 -35 -421 -75z"/>
<path d="M6045 26853 c-121 -118 -374 -354 -563 -525 l-343 -309 -151 -302
c-159 -319 -166 -335 -369 -937 -90 -264 -90 -266 -140 -569 -28 -177 -66
-366 -89 -452 -29 -107 -42 -177 -47 -254 l-6 -107 38 -78 c38 -78 39 -79 87
-90 86 -18 121 -13 169 23 24 19 96 66 159 107 63 40 130 87 148 104 19 17
145 168 280 336 135 168 279 345 319 393 94 112 119 155 260 450 234 490 274
589 346 852 36 132 103 371 148 530 69 243 82 301 82 360 -1 63 -84 609 -101
661 -6 19 -33 -4 -227 -193z"/>
<path d="M12636 26958 c-7 -39 -65 -407 -73 -459 -8 -55 70 -534 127 -776 12
-51 110 -296 265 -665 134 -321 254 -601 265 -624 35 -69 325 -417 474 -567
35 -36 152 -171 259 -300 210 -252 203 -245 398 -350 l85 -46 78 78 78 79 -4
218 c-6 265 -35 720 -50 789 -11 51 -134 387 -227 617 -27 70 -116 274 -197
455 -136 304 -157 344 -287 548 -77 121 -147 228 -156 239 -9 10 -216 172
-461 359 -245 188 -473 363 -507 390 l-62 48 -5 -33z"/>
<path d="M12302 25663 c-48 -75 -69 -89 -157 -108 -44 -9 -184 -41 -312 -71
-254 -59 -538 -101 -762 -114 -79 -5 -148 -13 -153 -18 -10 -10 8 -34 120
-159 72 -81 74 -85 121 -226 45 -133 49 -152 55 -277 4 -74 14 -251 22 -393
12 -204 13 -307 5 -495 -5 -130 -8 -455 -6 -722 3 -469 4 -487 24 -532 l21
-47 -89 -179 c-77 -156 -93 -198 -121 -313 -29 -124 -35 -139 -83 -203 l-52
-69 -209 -71 c-184 -62 -212 -75 -233 -103 l-24 -32 102 -78 c97 -74 491 -412
503 -432 3 -5 -3 -118 -14 -251 l-21 -243 26 -131 c15 -72 28 -139 31 -148 3
-12 68 -38 218 -88 l213 -71 193 30 c109 17 199 36 205 43 7 7 42 61 78 120
l66 106 16 262 16 262 -31 455 -31 455 -56 111 -55 111 7 371 c7 370 7 370
-19 515 -32 177 -32 186 -1 302 50 191 83 376 95 527 l11 155 55 129 c34 79
96 195 160 297 62 101 134 234 179 334 l75 167 -10 82 c-5 45 -16 145 -24 222
-14 130 -98 539 -116 558 -4 5 -21 -14 -38 -40z"/>
<path d="M6555 25597 c-54 -193 -68 -254 -90 -399 -14 -90 -34 -221 -45 -291
l-20 -128 85 -158 c75 -142 102 -208 250 -625 l165 -467 35 -498 36 -499 -35
-253 c-19 -140 -56 -427 -81 -638 l-46 -384 -2 -504 -2 -504 208 -85 209 -85
216 31 c313 44 281 32 324 119 20 40 66 145 102 232 l65 158 -19 183 c-11 101
-20 215 -20 254 l0 72 105 66 c104 65 445 321 445 334 0 4 -78 38 -173 75 -94
37 -196 80 -226 95 l-55 27 -57 126 c-148 329 -213 641 -249 1195 -29 444 -18
760 50 1506 l50 538 84 112 c70 94 81 114 68 120 -10 4 -233 50 -498 103 -428
85 -502 103 -672 159 l-192 64 -15 -51z"/>
<path d="M8615 25174 c-170 -97 -314 -179 -318 -183 -5 -5 -26 -107 -47 -227
l-39 -219 -31 -814 -30 -814 -50 -298 c-39 -231 -57 -317 -84 -385 -56 -148
-58 -131 33 -312 l80 -160 56 -11 c30 -6 79 -16 109 -22 43 -8 124 -5 383 15
451 35 414 28 462 86 l41 48 40 1029 c22 565 49 1188 60 1383 11 195 22 407
25 470 l6 115 -59 208 c-33 114 -62 210 -64 212 -5 5 -245 56 -257 54 -3 0
-145 -79 -316 -175z"/>
<path d="M9753 25268 l-52 -53 -12 -340 c-8 -250 -8 -464 0 -810 6 -258 16
-699 22 -980 l11 -510 -26 -197 -26 -197 71 -188 c40 -103 75 -191 78 -195 4
-4 129 -21 278 -38 l272 -31 227 40 c125 22 231 44 235 48 10 11 79 228 79
249 0 9 -33 170 -74 357 l-74 342 -11 795 -11 795 -35 170 c-50 247 -102 466
-111 475 -5 5 -115 69 -245 144 l-236 134 -119 16 c-65 9 -135 19 -154 22 -32
4 -40 0 -87 -48z"/>
<path d="M4057 23433 c-21 -3 -95 -71 -282 -256 l-253 -252 -166 -427 -166
-427 -310 -1050 -310 -1050 -294 -428 c-162 -235 -293 -429 -292 -430 1 -2 84
-12 185 -23 170 -20 185 -20 237 -5 l55 16 112 -77 c166 -114 334 -242 352
-267 l16 -22 19 23 c17 21 80 198 110 310 6 24 95 179 197 344 l186 301 453
557 c248 306 563 706 698 887 l245 331 122 304 c225 561 226 563 270 788 22
113 52 252 65 310 l25 105 -63 60 c-35 33 -125 113 -200 178 l-137 118 -123
-74 c-75 -45 -155 -85 -205 -102 l-83 -27 -60 37 c-61 37 -98 79 -173 198
l-37 57 -82 -1 c-46 -1 -96 -4 -111 -6z"/>
<path d="M14644 23364 c-76 -119 -113 -162 -172 -198 l-59 -36 -94 32 c-60 20
-134 56 -207 101 l-112 69 -138 -119 c-75 -65 -165 -145 -200 -178 l-62 -60
34 -150 c18 -83 46 -215 61 -295 31 -169 40 -195 237 -688 l148 -373 245 -329
c134 -181 449 -581 699 -889 l455 -559 184 -300 c164 -265 188 -310 211 -391
38 -133 85 -258 102 -272 12 -10 18 -8 30 9 17 24 186 153 351 266 l113 77 56
-16 c52 -15 66 -15 236 5 100 11 183 21 184 23 1 1 -130 195 -292 430 l-294
428 -310 1049 -310 1049 -169 433 -169 433 -208 206 c-115 113 -231 225 -257
249 l-48 43 -104 5 -104 5 -37 -59z"/>
<path d="M6565 19908 c-44 -187 -312 -1514 -321 -1588 -14 -127 -124 -755
-244 -1395 -35 -186 -65 -420 -140 -1090 -16 -137 -20 -218 -16 -290 4 -55 27
-446 51 -870 l45 -770 -12 -953 c-8 -656 -8 -956 -1 -963 7 -7 72 21 209 90
l199 100 29 78 c83 225 279 673 295 673 3 0 83 9 176 20 252 29 241 31 269
-32 13 -29 42 -109 64 -178 40 -125 57 -236 102 -669 l11 -105 141 -208 c78
-115 148 -213 157 -217 32 -17 111 -24 140 -11 37 15 54 52 370 828 l111 271
80 763 c43 420 89 855 100 968 20 186 21 240 15 590 -7 375 -7 388 -35 510
-30 130 -586 2454 -666 2780 -25 102 -108 430 -185 729 l-140 543 -92 106
c-51 59 -117 133 -147 165 l-55 58 -250 45 c-137 24 -251 44 -252 44 -2 0 -5
-10 -8 -22z"/>
<path d="M12115 19868 l-190 -50 -150 -102 -150 -102 -13 -60 c-7 -32 -39
-160 -72 -284 -92 -350 -368 -1441 -729 -2885 l-330 -1320 -11 -291 -11 -291
111 -649 c105 -616 118 -680 256 -1259 105 -444 163 -664 211 -810 36 -110 69
-203 72 -207 8 -9 213 47 327 88 l71 25 91 187 c124 255 132 279 132 420 0
115 25 488 38 571 l7 44 110 48 110 48 186 -192 187 -192 128 -274 c148 -313
112 -276 328 -342 114 -35 140 -40 147 -28 5 8 25 62 44 120 l36 106 -21 974
c-19 923 -20 1006 -5 1579 8 333 18 866 21 1185 l6 580 -45 220 c-132 635
-267 1366 -357 1926 -55 343 -104 647 -109 674 -12 60 -214 588 -227 591 -5 1
-94 -20 -199 -48z"/>
<path d="M5826 10475 c-79 -98 -276 -439 -518 -900 l-116 -220 -26 -276 c-26
-272 -26 -277 -11 -455 23 -257 95 -572 214 -926 57 -170 100 -322 121 -419
17 -83 37 -164 45 -179 17 -34 30 -189 50 -607 15 -307 15 -342 -4 -735 -40
-802 -52 -1201 -41 -1295 20 -175 15 -163 67 -163 80 0 75 -7 189 272 l64 157
50 528 50 528 20 1085 c16 875 27 1219 55 1780 19 382 42 857 50 1056 l17 361
-27 79 c-43 127 -159 424 -166 424 -4 0 -41 -43 -83 -95z"/>
<path d="M12938 10397 c-37 -94 -78 -208 -93 -251 l-27 -79 17 -361 c8 -199
31 -674 50 -1056 28 -561 39 -905 55 -1780 l20 -1085 50 -528 50 -528 64 -157
c114 -279 109 -272 189 -272 52 0 47 -12 67 163 11 94 -1 493 -41 1295 -19
393 -19 428 -4 735 20 418 33 573 50 607 8 15 28 96 45 179 21 97 64 249 121
419 119 354 191 669 214 926 15 178 15 183 -11 455 l-26 276 -116 220 c-242
461 -439 802 -518 900 -42 52 -79 95 -83 95 -3 0 -36 -78 -73 -173z"/>
<path d="M6828 8920 l-218 -500 -54 -288 c-68 -357 -93 -506 -100 -602 -4 -41
-29 -327 -57 -635 l-50 -560 16 -225 c18 -259 24 -320 36 -320 8 0 141 227
363 617 116 205 137 251 285 621 l160 400 51 361 51 361 -51 363 c-66 481
-116 728 -167 830 -20 43 -40 77 -43 77 -3 0 -103 -225 -222 -500z"/>
<path d="M11790 9346 c0 -2 -11 -59 -25 -127 -64 -311 -107 -573 -116 -709 -5
-80 -16 -209 -24 -287 l-16 -142 61 -347 61 -347 128 -301 c71 -165 181 -427
245 -581 145 -349 148 -356 247 -490 145 -195 145 -195 179 -183 17 5 32 14
35 18 5 9 -10 297 -71 1325 l-35 600 -145 505 -146 505 -157 270 c-134 228
-163 271 -189 282 -18 7 -32 11 -32 9z"/>
</g>
</svg>
