<?xml version="1.0" standalone="no"?>
<!DOCTYPE svg PUBLIC "-//W3C//DTD SVG 20010904//EN"
 "http://www.w3.org/TR/2001/REC-SVG-20010904/DTD/svg10.dtd">
<svg version="1.0" xmlns="http://www.w3.org/2000/svg"
 width="1895.000000pt" height="3500.000000pt" viewBox="0 0 1895.000000 3500.000000"
 preserveAspectRatio="xMidYMid meet">
<metadata>
Created by potrace 1.16, written by Peter Selinger 2001-2019
</metadata>
<g transform="translate(0.000000,3500.000000) scale(0.100000,-0.100000)"
fill="#000000" stroke="none">
<path d="M9175 34319 c-278 -25 -619 -200 -861 -443 -223 -223 -295 -391 -349
-807 -39 -303 -74 -383 -189 -437 -53 -26 -59 -40 -82 -212 -19 -139 -14 -358
11 -470 9 -41 36 -116 60 -166 53 -109 121 -179 236 -239 159 -83 231 -187
249 -361 25 -232 31 -272 50 -331 29 -94 40 -207 40 -423 0 -320 -26 -521 -78
-595 -80 -114 -730 -626 -1179 -929 l-161 -108 -253 16 c-483 31 -568 24 -814
-67 -381 -140 -638 -339 -829 -640 -58 -92 -152 -277 -169 -332 -30 -97 -36
-227 -42 -900 -8 -1011 -17 -1118 -111 -1381 -185 -516 -257 -765 -340 -1179
-47 -232 -90 -407 -125 -502 -40 -109 -171 -260 -448 -517 -485 -451 -579
-650 -855 -1821 -193 -816 -284 -1153 -347 -1285 -136 -286 -529 -821 -837
-1142 -117 -121 -176 -164 -281 -203 -189 -71 -349 -205 -624 -525 -138 -160
-366 -449 -469 -593 -117 -163 -153 -236 -152 -302 3 -101 41 -128 179 -128
99 1 186 23 287 74 59 30 92 36 103 20 10 -17 -39 -138 -165 -411 -206 -445
-249 -576 -217 -652 28 -67 106 -94 188 -66 54 18 131 71 219 150 101 90 223
189 227 184 2 -1 -28 -126 -66 -277 -38 -151 -77 -312 -85 -358 -20 -103 -21
-211 -2 -254 27 -66 102 -107 196 -107 121 1 243 117 366 348 l39 74 7 -54 c3
-29 6 -105 7 -169 2 -197 30 -292 98 -324 38 -18 97 -13 144 11 99 50 194 256
324 706 27 92 50 166 52 165 1 -2 13 -58 27 -125 27 -138 65 -229 122 -292 62
-69 123 -86 192 -53 48 23 134 112 154 160 10 23 23 108 33 221 26 297 105
904 156 1188 11 62 38 172 60 245 22 74 85 316 140 539 152 618 216 820 344
1088 136 283 255 453 566 808 395 451 704 844 947 1208 304 453 373 626 522
1305 95 433 138 527 451 998 156 233 290 460 407 688 114 221 126 240 142 230
22 -13 104 -150 180 -300 196 -385 270 -830 270 -1620 -1 -445 -14 -559 -91
-763 -83 -223 -88 -264 -99 -977 -9 -623 -12 -652 -75 -755 -156 -257 -264
-627 -340 -1160 -45 -321 -133 -866 -210 -1298 -121 -686 -166 -999 -204
-1417 -45 -490 -49 -716 -26 -1335 42 -1123 40 -1774 -6 -2420 -13 -182 -19
-349 -17 -435 4 -130 7 -146 37 -219 39 -94 39 -95 -24 -341 -75 -291 -89
-444 -60 -666 30 -229 -10 -342 -271 -759 -172 -276 -234 -387 -345 -615 -160
-330 -249 -575 -292 -805 -19 -104 -21 -149 -21 -470 0 -377 4 -441 69 -1120
63 -656 80 -903 96 -1370 26 -762 -36 -1310 -175 -1550 -78 -134 -83 -176 -96
-750 -6 -308 -13 -453 -23 -497 -26 -114 -81 -257 -157 -408 -90 -179 -171
-310 -299 -483 -207 -280 -354 -526 -386 -648 -31 -118 5 -177 141 -234 113
-46 169 -76 253 -133 96 -64 167 -93 322 -128 140 -31 237 -65 296 -102 97
-61 273 -107 438 -114 148 -7 168 1 270 109 163 169 207 299 225 668 12 255
39 406 115 635 70 213 155 386 295 595 158 237 195 326 188 460 -6 103 -25
160 -128 387 -92 200 -107 248 -116 352 -7 84 9 341 32 526 62 497 227 955
734 2035 330 702 448 1003 513 1300 42 188 50 290 44 528 -5 212 -14 290 -67
602 -45 267 -64 452 -64 650 -1 254 6 277 171 520 163 240 190 331 258 860 55
429 74 503 164 659 168 291 368 988 497 1726 60 347 117 531 380 1233 355 946
361 972 394 1772 6 146 13 280 16 298 l5 32 273 0 273 0 6 -397 c9 -644 23
-705 362 -1628 275 -750 354 -1005 415 -1355 72 -411 227 -1022 354 -1399 48
-142 74 -193 141 -275 24 -30 51 -68 60 -85 26 -52 53 -176 74 -356 12 -93 31
-246 42 -340 48 -394 83 -496 269 -775 133 -201 135 -209 135 -480 -1 -284
-23 -489 -90 -855 -21 -113 -27 -183 -32 -361 -9 -362 29 -588 167 -988 92
-265 155 -408 488 -1101 481 -1005 661 -1600 662 -2190 0 -125 -13 -265 -31
-325 -6 -19 -51 -118 -100 -220 -109 -226 -131 -306 -111 -422 17 -97 76 -215
201 -404 237 -357 343 -665 396 -1155 38 -357 47 -425 65 -483 33 -105 168
-279 246 -316 42 -21 55 -22 227 -18 208 6 256 17 371 86 95 58 158 79 323
113 167 34 213 52 288 113 70 57 125 85 239 121 92 29 162 73 183 115 18 35
16 120 -3 177 -44 133 -181 356 -327 533 -110 132 -200 278 -307 495 -102 207
-158 345 -191 475 -27 103 -38 311 -28 515 4 94 8 240 8 326 1 180 -9 226 -86
389 -122 259 -144 354 -190 825 -21 224 -24 849 -5 1120 23 317 61 748 107
1213 25 249 50 523 56 610 14 195 6 572 -15 707 -43 271 -140 542 -341 945
-103 209 -153 295 -286 497 -205 312 -262 457 -274 697 -3 56 -10 201 -15 322
-12 258 -34 407 -84 549 -47 132 -46 162 4 246 60 100 65 142 46 328 -28 270
-37 785 -42 2621 l-6 1785 -98 500 c-154 778 -238 1255 -320 1803 -102 678
-148 853 -315 1179 -51 100 -87 184 -94 220 -8 36 -15 261 -21 603 -10 672
-16 729 -97 965 -46 133 -61 213 -74 413 -13 193 -6 888 10 1052 31 295 85
551 156 725 80 198 271 513 296 488 5 -5 60 -107 122 -228 133 -257 243 -443
450 -759 291 -446 333 -545 422 -991 84 -427 135 -601 234 -800 205 -413 623
-980 1178 -1596 328 -364 451 -534 583 -804 126 -256 205 -496 316 -950 36
-148 98 -391 136 -540 39 -148 84 -319 99 -380 53 -201 96 -495 154 -1040 43
-398 64 -501 112 -547 39 -36 95 -52 161 -45 138 14 219 136 241 365 6 63 14
99 25 110 24 25 34 7 60 -109 59 -260 148 -520 217 -634 45 -75 107 -132 154
-141 48 -9 119 12 155 46 39 37 47 77 57 299 l8 195 69 -122 c89 -157 158
-241 227 -276 29 -14 65 -26 79 -26 76 0 189 71 216 137 8 18 14 65 14 105 0
78 -17 155 -99 470 -52 201 -62 278 -38 278 7 0 63 -48 123 -108 159 -156 268
-222 370 -222 37 0 51 5 75 29 26 27 29 36 29 98 0 116 -42 238 -208 604 -77
169 -143 333 -157 392 -6 24 -4 27 16 27 13 0 51 -12 84 -26 158 -68 188 -77
275 -78 126 -2 181 33 204 127 11 46 -37 121 -299 472 -414 551 -644 790 -880
911 -44 23 -102 49 -130 59 -27 10 -73 35 -101 56 -147 108 -548 600 -803 984
-129 194 -189 308 -230 438 -55 172 -158 569 -261 1007 -172 730 -269 1064
-378 1309 -106 237 -212 378 -432 575 -224 202 -390 371 -448 461 -95 145
-137 285 -222 740 -90 480 -118 574 -301 992 l-119 272 0 643 c0 655 -13 1205
-30 1326 -20 144 -95 323 -200 480 -169 253 -437 456 -787 597 -157 64 -182
67 -677 72 l-450 5 -225 149 c-294 193 -573 395 -675 489 -45 41 -158 142
-251 224 -94 82 -178 156 -187 165 -13 13 -20 64 -37 276 -40 512 -39 543 29
778 28 100 44 183 54 279 23 221 58 276 231 359 84 39 112 59 159 110 158 171
218 461 161 790 -20 119 -56 175 -146 230 -86 54 -99 89 -124 358 -30 324 -76
491 -180 646 -124 186 -389 409 -609 510 -230 107 -664 165 -1001 134z m514
-184 c139 -27 382 -111 520 -180 258 -129 416 -282 516 -499 73 -157 102 -315
115 -621 12 -284 29 -380 67 -373 9 2 24 17 33 33 20 36 59 44 95 21 80 -53
79 -417 -2 -665 -37 -115 -95 -191 -135 -176 -36 14 -42 54 -46 308 -2 136 -7
247 -11 247 -10 0 -117 -311 -156 -455 -20 -71 -51 -204 -71 -295 -57 -262
-109 -470 -135 -535 -21 -53 -31 -65 -91 -105 -95 -64 -351 -199 -498 -264
-296 -130 -473 -146 -710 -64 -181 62 -544 259 -663 360 -74 62 -123 194 -173
468 -51 284 -172 718 -227 814 -51 91 -65 46 -49 -169 7 -88 12 -190 12 -227
0 -59 -3 -69 -22 -79 -47 -25 -114 40 -159 153 -89 227 -83 663 10 693 13 4
36 -3 64 -19 57 -34 65 -33 82 8 23 56 34 149 44 391 10 245 24 336 70 465 79
224 258 421 504 554 208 112 482 205 677 230 64 8 254 -3 339 -19z m-1143
-3494 c40 -25 60 -68 154 -345 85 -252 200 -534 363 -891 176 -387 260 -629
274 -787 6 -74 -9 -128 -36 -128 -69 0 -420 513 -606 885 -115 232 -144 337
-180 650 -32 286 -41 591 -19 627 7 12 16 10 50 -11z m1894 -7 c22 -57 7 -385
-30 -644 -29 -210 -88 -439 -148 -577 -90 -209 -582 -938 -632 -938 -24 0 -31
80 -20 205 18 207 53 310 235 690 167 347 262 573 346 820 132 387 215 535
249 444z m-1585 -127 c110 -55 140 -104 154 -252 17 -173 80 -302 220 -448 75
-78 137 -121 202 -138 40 -11 53 -10 93 5 136 52 306 249 378 439 11 28 24 92
29 142 13 122 23 147 73 193 47 43 84 65 129 76 23 5 27 3 27 -14 0 -71 -381
-933 -494 -1117 -58 -95 -88 -113 -190 -113 -101 0 -131 16 -187 102 -87 135
-466 912 -517 1059 -23 69 -25 81 -12 89 17 11 38 6 95 -23z m902 -207 c18 -6
35 -20 38 -31 14 -42 -65 -162 -232 -356 l-98 -114 -68 73 c-135 145 -250 319
-272 410 l-7 27 84 4 c156 8 522 -1 555 -13z m1067 -824 c157 -133 505 -390
749 -551 48 -32 87 -61 87 -65 0 -4 -46 -18 -102 -31 -232 -54 -648 -16 -844
76 -265 126 -326 401 -169 768 l16 38 91 -83 c50 -46 127 -114 172 -152z
m-2435 160 c57 -117 94 -245 95 -321 1 -62 -3 -79 -40 -155 -113 -232 -293
-323 -696 -350 -166 -11 -352 -1 -401 21 -58 26 -37 48 256 261 280 203 439
330 572 458 112 108 161 150 176 150 4 0 22 -29 38 -64z m440 -853 l142 -203
-101 -132 c-56 -73 -107 -134 -114 -136 -16 -4 -430 138 -578 198 -132 54
-171 76 -165 93 2 7 38 23 79 37 119 39 189 90 368 266 l164 162 31 -42 c17
-22 95 -132 174 -243z m1550 220 c86 -115 239 -242 371 -308 80 -40 161 -96
154 -106 -28 -45 -613 -269 -704 -269 -64 0 -151 65 -191 142 -34 67 -26 111
48 260 37 73 78 149 92 168 29 40 163 180 173 180 3 0 29 -30 57 -67z m1866
-444 c208 -22 382 -50 462 -74 28 -8 75 -34 103 -56 194 -153 490 -493 605
-694 93 -163 172 -410 221 -687 22 -129 27 -192 31 -399 4 -175 2 -252 -6
-267 l-12 -22 -39 20 c-65 33 -213 163 -416 365 -250 249 -257 262 -384 730
-56 204 -84 267 -174 389 -157 210 -366 402 -611 561 -66 42 -142 94 -168 114
l-48 36 38 5 c55 8 182 1 398 -21z m-5125 2 c0 -4 -39 -30 -86 -57 -228 -130
-374 -244 -560 -436 -227 -235 -301 -369 -384 -700 -50 -196 -120 -356 -204
-462 -153 -195 -597 -585 -637 -561 -28 18 6 430 61 750 54 309 131 517 282
759 127 202 342 437 493 537 154 103 254 140 420 160 192 22 615 29 615 10z
m-1239 -28 c-6 -10 -67 -81 -137 -158 -216 -238 -339 -419 -475 -700 -131
-270 -144 -323 -189 -763 -53 -526 -113 -949 -138 -974 -33 -33 -27 1145 9
1497 24 247 75 385 206 560 86 115 233 261 348 348 74 56 346 205 378 207 4 0
3 -8 -2 -17z m7274 -28 c318 -157 527 -339 677 -588 91 -152 129 -279 147
-502 27 -316 53 -1589 32 -1570 -33 31 -83 341 -131 805 -74 715 -109 854
-300 1185 -154 268 -283 439 -444 589 -64 59 -116 113 -116 118 0 17 59 1 135
-37z m-5386 -41 c308 -77 981 -361 981 -413 0 -17 -211 -47 -565 -81 -592 -55
-691 -72 -904 -156 -47 -19 -280 -132 -518 -251 -237 -120 -435 -214 -440
-209 -17 17 -7 169 15 227 81 206 374 507 682 699 167 105 372 190 505 209 73
11 121 6 244 -25z m3693 2 c337 -65 763 -359 1027 -709 79 -104 119 -196 133
-300 6 -48 9 -89 6 -92 -9 -9 -149 55 -465 213 -605 303 -667 321 -1368 387
-511 48 -659 67 -671 86 -14 23 186 126 313 162 51 15 172 56 270 93 453 168
576 194 755 160z m-2287 -151 c187 -139 315 -144 553 -19 57 30 112 54 122 54
26 0 70 -77 70 -122 0 -37 -27 -85 -86 -150 -70 -78 -81 -163 -149 -1123 -19
-275 -45 -610 -56 -744 -22 -264 -19 -330 21 -431 40 -102 91 -159 167 -189
17 -7 39 -21 49 -32 24 -26 5 -45 -54 -54 -63 -9 -174 -68 -217 -116 -47 -53
-63 -116 -75 -304 -14 -223 -20 -280 -37 -357 -28 -130 -39 -86 -53 212 -9
219 -22 290 -67 372 -38 69 -97 120 -203 173 l-91 46 26 31 c23 28 61 62 191
179 l41 36 -14 189 c-7 104 -38 556 -68 1004 -33 488 -61 845 -71 890 -18 88
-40 141 -93 224 -48 77 -65 127 -59 180 7 55 34 116 52 116 8 0 53 -29 101
-65z m-285 -461 c77 -17 112 -40 137 -87 23 -44 42 -233 43 -417 0 -85 9 -317
20 -515 27 -485 35 -843 21 -924 -9 -54 -17 -71 -48 -103 -108 -111 -468 -291
-663 -332 -83 -17 -144 -13 -475 35 -435 62 -872 141 -992 180 -83 27 -173 87
-217 144 -73 97 -106 193 -131 385 -28 207 -61 366 -140 660 -48 179 -78 331
-69 354 11 28 628 323 851 407 253 95 522 143 1008 180 158 12 562 45 578 48
4 0 39 -6 77 -15z m1495 -10 c401 -28 854 -77 1006 -109 261 -55 850 -316
1086 -482 34 -24 64 -52 68 -62 7 -22 -20 -148 -75 -351 -50 -184 -82 -330
-125 -583 -75 -434 -134 -516 -416 -582 -237 -55 -896 -166 -1185 -199 -111
-13 -140 -13 -195 -1 -184 38 -577 224 -682 323 -15 14 -32 44 -38 66 -18 65
-12 369 20 1041 32 666 45 860 62 912 19 58 28 59 474 27z m-4128 -926 c39
-118 41 -443 4 -653 -89 -498 -277 -1146 -411 -1417 -173 -349 -981 -1374
-1231 -1562 -72 -54 -111 -60 -157 -21 -53 44 -76 115 -80 245 -3 123 -6 109
72 385 20 72 57 225 82 340 66 302 128 554 175 706 123 403 282 715 507 999
96 122 995 1024 1013 1018 8 -3 19 -20 26 -40z m6530 -56 c110 -91 574 -545
755 -739 295 -316 321 -352 438 -595 155 -325 278 -701 370 -1133 55 -255 102
-450 139 -567 40 -131 53 -204 52 -315 0 -116 -20 -192 -65 -240 -62 -68 -117
-44 -277 116 -110 111 -232 250 -452 515 -555 668 -720 956 -893 1558 -151
526 -216 887 -217 1193 -1 201 18 280 63 268 10 -3 49 -30 87 -61z m-6380
-1236 c-5 -190 -18 -295 -58 -476 -112 -510 -315 -919 -870 -1756 l-171 -257
-55 94 c-69 116 -119 222 -128 271 -8 44 -20 28 310 438 253 314 331 418 438
580 161 246 263 478 378 868 133 447 140 468 151 448 7 -13 9 -86 5 -210z
m6160 107 c154 -493 260 -786 349 -964 138 -277 441 -699 722 -1008 62 -69
125 -147 139 -175 23 -46 25 -54 14 -100 -15 -67 -93 -224 -135 -272 l-34 -39
-22 20 c-70 63 -485 721 -702 1115 -168 304 -275 609 -337 960 -36 200 -57
560 -33 560 5 0 22 -44 39 -97z m-222 -198 c20 -78 37 -260 33 -356 l-3 -77
-145 47 c-156 51 -250 89 -250 101 0 13 184 222 259 294 43 41 76 65 81 60 5
-5 16 -36 25 -69z m-5599 -62 c44 -48 110 -123 147 -165 l68 -76 -153 -50
c-206 -67 -212 -68 -239 -41 -21 21 -22 27 -16 158 8 157 22 249 44 273 14 15
18 16 43 3 15 -8 63 -53 106 -102z m658 -88 c395 -68 456 -80 456 -94 0 -15
-52 -86 -98 -134 -99 -102 -170 -111 -314 -39 -113 56 -348 208 -410 264 -46
42 -56 68 -25 68 7 0 183 -29 391 -65z m4502 50 c18 -15 17 -17 -32 -63 -88
-82 -383 -269 -478 -303 -70 -24 -99 -24 -152 2 -47 22 -217 194 -211 213 4
12 171 48 562 120 272 50 284 52 311 31z m-2790 -180 c27 -14 57 -38 67 -54
24 -41 40 -225 32 -366 -16 -263 -67 -385 -200 -480 -131 -94 -259 -129 -475
-129 -179 -1 -210 9 -245 79 -29 58 -27 296 3 406 58 212 165 326 438 463 223
112 290 126 380 81z m875 5 c86 -26 306 -136 400 -199 146 -97 200 -186 243
-402 38 -190 37 -311 -3 -368 -45 -63 -173 -91 -331 -71 -169 21 -325 85 -437
178 -116 97 -148 206 -148 502 0 163 3 204 18 250 41 122 117 154 258 110z
m-2883 -211 c83 -26 243 -108 297 -153 33 -28 38 -37 30 -54 -6 -12 -65 -64
-133 -117 l-123 -96 -122 66 c-67 36 -153 88 -190 117 -73 54 -170 162 -164
182 5 17 101 66 149 76 60 13 177 3 256 -21z m5067 -14 c33 -17 61 -37 63 -47
4 -24 -106 -137 -190 -195 -40 -28 -121 -76 -179 -107 l-106 -56 -117 90
c-117 92 -136 112 -136 149 0 42 178 145 311 181 57 15 100 19 184 17 100 -2
116 -5 170 -32z m-4039 -81 c-4 -18 -20 -64 -35 -102 -73 -178 -88 -343 -116
-1297 -26 -908 -39 -1055 -94 -1085 -26 -14 -37 6 -50 91 -28 178 -55 1010
-48 1494 5 377 6 391 72 605 56 185 137 309 212 326 15 3 33 7 38 9 20 5 27
-8 21 -41z m2727 8 c27 -14 60 -39 74 -56 63 -76 157 -312 189 -480 23 -118
29 -610 15 -1196 -16 -636 -28 -790 -65 -790 -20 0 -63 52 -75 90 -27 87 -42
360 -66 1220 -19 656 -34 883 -65 1002 -6 20 -30 80 -55 133 -25 53 -45 101
-45 106 0 14 33 3 93 -29z m1598 -86 c14 -51 -35 -150 -234 -476 -66 -107
-126 -203 -133 -214 -11 -17 -20 -4 -86 127 l-72 146 24 26 c13 14 74 59 136
101 144 97 224 169 269 244 52 85 82 99 96 46z m-5872 -96 c70 -80 174 -163
306 -242 97 -58 105 -65 100 -88 -9 -35 -101 -220 -126 -250 l-19 -25 -33 37
c-45 50 -175 271 -260 440 -57 113 -71 150 -74 196 l-4 57 28 -31 c15 -17 52
-59 82 -94z m1081 -69 c0 -36 -55 -222 -80 -271 -20 -40 -36 -50 -77 -50 -43
0 -153 77 -153 106 0 17 154 158 224 205 70 47 86 49 86 10z m3687 -10 c58
-47 239 -229 232 -234 -2 -2 -56 -31 -119 -65 l-116 -61 -37 138 c-70 262 -63
305 40 222z m-1843 -190 c10 -11 22 -37 27 -58 6 -21 14 -263 19 -538 6 -370
14 -564 30 -745 24 -266 22 -353 -9 -441 -40 -114 -51 -527 -20 -804 13 -116
33 -157 129 -258 l78 -82 -60 -135 c-78 -179 -96 -241 -113 -390 -30 -263 -75
-1921 -75 -2750 0 -425 9 -561 36 -591 33 -37 107 -52 233 -47 148 6 196 25
279 111 133 139 210 323 413 987 205 668 414 1316 429 1333 4 5 42 -5 84 -22
42 -17 109 -44 149 -60 116 -47 300 -100 477 -137 90 -19 165 -36 167 -38 1
-1 -71 -48 -161 -104 -503 -312 -587 -434 -1011 -1467 -157 -382 -344 -718
-544 -975 -188 -243 -452 -459 -591 -484 -46 -8 -123 15 -182 54 -123 82 -370
335 -513 525 -192 256 -306 479 -571 1115 -138 330 -280 621 -364 748 -121
180 -233 281 -527 477 -90 60 -163 111 -163 115 0 4 57 17 128 30 181 32 381
91 571 167 117 46 166 62 171 53 4 -7 103 -323 220 -703 386 -1257 431 -1379
561 -1543 116 -146 183 -185 331 -192 118 -6 159 1 198 34 80 68 89 244 66
1294 -44 2100 -45 2111 -194 2525 l-39 110 84 88 c122 127 128 144 126 347 -1
91 -7 251 -13 355 -33 600 -19 1750 26 2027 12 77 77 114 118 69z m2261 -225
c67 -69 100 -147 100 -231 -1 -83 -23 -132 -93 -208 -55 -58 -293 -252 -402
-326 l-75 -52 -9 38 c-4 21 -9 128 -10 238 l-1 200 38 52 c81 111 348 332 401
333 5 0 28 -20 51 -44z m-4460 -20 c174 -118 267 -214 296 -304 13 -38 26
-492 15 -492 -12 0 -271 197 -352 268 -146 127 -222 252 -211 348 9 87 104
234 150 234 12 0 58 -24 102 -54z m1799 -246 l89 0 -7 -355 c-9 -495 -22 -607
-76 -646 -43 -32 -171 -57 -432 -84 -139 -14 -283 -30 -319 -34 -36 -5 -78 -6
-93 -4 -81 16 -101 149 -76 511 16 226 41 311 123 399 115 125 438 233 652
217 28 -2 90 -4 139 -4z m1081 -19 c252 -55 465 -183 494 -297 23 -90 34 -358
22 -528 -15 -208 -25 -254 -59 -267 -63 -24 -757 54 -840 94 -18 8 -30 26 -38
54 -54 186 -78 894 -33 938 28 27 84 35 224 30 86 -2 175 -12 230 -24z m-3064
-393 c53 -40 182 -143 287 -228 l190 -155 7 -80 c13 -146 11 -428 -3 -453 -12
-21 -14 -21 -42 -7 -107 55 -440 362 -493 455 -44 76 -106 485 -84 544 9 22
17 17 138 -76z m4831 75 c10 -48 -50 -342 -103 -510 l-29 -91 -111 -106 c-111
-107 -329 -278 -369 -291 -12 -4 -25 -4 -28 0 -12 12 -14 298 -3 409 8 84 16
117 33 140 56 81 548 466 594 466 7 0 14 -8 16 -17z m3003 -444 c50 -37 132
-110 183 -161 289 -294 365 -482 658 -1633 262 -1029 345 -1297 494 -1600 102
-207 269 -442 464 -652 l68 -73 -119 1 -118 0 -69 117 c-38 64 -189 299 -336
522 -386 584 -482 755 -789 1402 -157 330 -220 452 -327 629 -143 238 -359
522 -594 779 -235 258 -354 412 -405 522 -28 61 -44 171 -27 182 14 8 60 -14
124 -60 72 -51 145 -85 199 -91 101 -12 175 43 268 199 l51 86 93 -50 c50 -28
133 -81 182 -119z m-10673 111 c4 -14 10 -37 12 -51 9 -42 48 -91 105 -131 68
-47 121 -56 195 -33 50 16 77 32 204 119 58 39 72 27 72 -64 0 -55 -5 -78 -30
-126 -40 -76 -144 -207 -346 -430 -293 -327 -396 -455 -537 -669 -125 -191
-199 -328 -470 -875 -353 -712 -537 -1033 -823 -1435 -132 -185 -269 -396
-313 -482 l-21 -43 -115 0 -115 0 98 118 c296 355 492 670 576 924 53 157 141
488 321 1198 268 1056 317 1213 441 1407 130 203 341 412 539 533 95 58 124
70 165 67 27 -2 36 -7 42 -27z m9683 -495 c78 -106 211 -263 361 -425 133
-145 247 -281 240 -287 -5 -5 -123 40 -181 69 -93 47 -294 118 -446 158 -83
21 -153 40 -154 42 -6 5 -85 353 -95 413 -13 79 -1 121 62 218 l51 78 55 -98
c30 -53 78 -129 107 -168z m-8802 174 c54 -105 65 -182 44 -293 -23 -115 -62
-235 -90 -277 -33 -49 -78 -75 -164 -94 -111 -25 -258 -78 -407 -146 -71 -33
-142 -63 -159 -66 l-30 -6 17 29 c17 29 92 116 322 376 145 165 256 310 317
417 64 112 87 143 101 138 6 -2 28 -37 49 -78z m1992 -293 c238 -158 434 -333
503 -449 47 -78 122 -268 124 -312 2 -46 -14 -57 -70 -51 -183 23 -544 275
-649 453 -24 42 -28 60 -31 151 -4 99 9 206 29 245 11 19 9 20 94 -37z m4702
4 c17 -51 16 -244 -2 -313 -40 -152 -202 -301 -469 -428 -133 -63 -203 -80
-240 -56 -34 23 -33 40 8 145 75 196 152 305 302 433 164 140 343 263 374 257
8 -2 20 -19 27 -38z m-2846 -69 c79 -25 116 -52 137 -100 33 -77 24 -620 -12
-689 -36 -70 -122 -88 -553 -112 -208 -12 -348 -3 -402 25 -46 23 -101 83
-125 134 -17 37 -21 65 -20 141 0 159 62 297 189 425 104 105 235 165 421 195
96 15 289 5 365 -19z m1398 -5 c97 -25 157 -62 251 -156 139 -139 203 -271
203 -420 1 -108 -24 -170 -94 -235 -85 -80 -120 -90 -294 -89 -304 3 -596 34
-648 68 -66 45 -96 156 -104 387 -10 297 28 405 164 455 54 20 432 13 522 -10z
m3564 -432 c61 -14 78 -23 112 -58 53 -55 137 -199 286 -491 240 -471 393
-736 656 -1140 83 -126 155 -241 162 -255 15 -32 -176 164 -337 345 -366 411
-683 862 -876 1246 -103 204 -136 285 -136 329 0 44 24 48 133 24z m-8903 -9
c19 -23 2 -70 -90 -253 -155 -309 -360 -635 -570 -907 -241 -311 -541 -666
-660 -780 -49 -47 -51 -48 -36 -17 25 48 106 181 253 412 153 241 280 461 423
730 240 454 273 516 331 608 87 139 114 168 184 197 69 28 146 33 165 10z
m-573 -247 c-73 -160 -343 -651 -520 -948 -229 -383 -471 -732 -960 -1385
-279 -372 -360 -466 -418 -487 -8 -3 -29 0 -47 8 -23 9 -32 20 -32 37 0 30 54
114 156 242 400 501 637 884 1064 1720 281 550 320 605 514 733 106 70 268
163 273 158 2 -2 -12 -37 -30 -78z m9993 17 c96 -48 245 -149 306 -207 81 -76
138 -174 370 -630 412 -809 528 -998 982 -1607 135 -181 216 -307 227 -352 6
-24 3 -28 -28 -38 -52 -17 -76 -2 -157 96 -189 228 -731 972 -1002 1373 -238
353 -673 1104 -783 1353 l-25 58 22 -7 c13 -3 52 -21 88 -39z m-7306 -127
c279 -296 428 -527 530 -825 88 -260 129 -531 96 -649 -27 -94 -137 -183 -295
-236 -61 -20 -89 -23 -215 -23 -176 1 -218 14 -343 109 l-81 62 2 145 c6 370
23 907 33 1034 14 188 38 301 90 418 24 53 47 97 51 97 3 0 63 -60 132 -132z
m4723 37 c45 -115 84 -271 98 -390 42 -361 21 -1005 -41 -1225 -21 -73 -45
-96 -123 -121 -91 -30 -315 -37 -420 -15 -136 29 -242 100 -288 194 -26 52
-28 68 -31 190 -5 165 14 292 69 457 72 218 203 450 378 670 130 163 285 310
320 303 8 -2 25 -30 38 -63z m-3954 -235 c23 -11 60 -31 82 -45 49 -30 147
-68 237 -91 l67 -18 -122 -66 c-169 -91 -206 -117 -223 -159 -23 -56 -75 -131
-89 -131 -25 0 -70 68 -153 228 -98 190 -137 288 -119 299 42 26 253 15 320
-17z m3322 16 c18 -13 15 -20 -49 -152 -75 -155 -175 -335 -210 -379 l-24 -30
-31 67 c-40 83 -103 143 -266 251 -66 43 -121 82 -123 86 -1 4 50 20 115 35
134 33 228 68 257 95 32 29 80 39 202 40 78 1 116 -3 129 -13z m-1042 -255
c107 -28 197 -65 310 -130 155 -88 220 -160 245 -276 32 -146 23 -333 -27
-559 -56 -250 -243 -868 -511 -1696 -210 -647 -244 -724 -372 -846 -60 -57
-121 -94 -135 -80 -16 15 -23 1178 -15 2221 l9 1121 53 75 c112 158 157 188
286 189 48 0 112 -8 157 -19z m-1294 -2 c63 -13 110 -62 168 -174 96 -187 97
-192 95 -1715 -1 -1100 -9 -1681 -25 -1696 -3 -3 -36 10 -74 30 -178 89 -229
204 -564 1276 -365 1165 -422 1374 -444 1635 -13 150 23 287 101 381 77 94
327 231 489 267 40 9 205 7 254 -4z m-2255 -1674 c8 -39 29 -164 46 -280 55
-367 106 -581 255 -1060 342 -1102 487 -1742 535 -2359 13 -167 13 -671 0
-851 -27 -373 -98 -780 -246 -1410 -80 -341 -112 -454 -145 -512 -63 -109
-174 -232 -212 -233 -145 -3 -498 2432 -598 4120 -37 636 96 1949 252 2475 30
99 77 201 89 189 5 -5 16 -41 24 -79z m5616 16 c57 -113 156 -595 204 -1001
86 -718 88 -1535 6 -2520 -95 -1129 -276 -2465 -395 -2907 -45 -171 -125 -294
-178 -277 -75 22 -153 187 -242 509 -86 314 -217 927 -269 1265 -55 357 -61
427 -61 770 0 282 3 347 23 490 100 728 260 1434 502 2215 161 519 245 856
295 1191 31 199 41 246 61 285 18 35 27 31 54 -20z m-5272 -55 c38 -20 126
-114 150 -162 72 -143 198 -628 692 -2653 298 -1223 338 -1398 374 -1617 55
-335 58 -527 10 -690 -42 -145 -62 -356 -89 -909 -32 -676 -56 -873 -126
-1040 -37 -91 -54 -108 -69 -70 -30 79 -43 286 -70 1085 -68 2058 -139 2778
-360 3645 -72 283 -122 451 -300 1000 -355 1099 -416 1379 -311 1431 25 13 43
9 99 -20z m4978 16 c6 -4 17 -18 24 -31 36 -69 -41 -383 -275 -1121 -309 -971
-402 -1302 -494 -1750 -122 -601 -173 -1161 -216 -2380 -47 -1347 -73 -1812
-106 -1898 -10 -26 -11 -27 -26 -7 -28 37 -54 109 -83 230 -55 228 -88 524
-115 1040 -27 526 -50 743 -88 855 -26 76 -29 233 -8 360 67 403 355 1637 832
3569 163 661 208 822 255 912 38 72 137 180 193 209 37 20 88 25 107 12z
m4007 -560 c31 -41 60 -85 63 -97 7 -29 -17 -75 -56 -109 -37 -31 -42 -31 -62
-8 -27 31 -47 79 -112 270 -35 103 -68 196 -72 207 -11 26 166 -168 239 -263z
m-12908 191 c-21 -90 -131 -373 -153 -395 -15 -16 -24 -18 -39 -9 -34 17 -83
80 -83 105 0 37 248 356 278 356 7 0 6 -19 -3 -57z m4452 -36 c167 -176 389
-631 521 -1067 89 -295 90 -310 19 -521 -56 -167 -93 -252 -107 -244 -49 30
-142 331 -321 1043 -65 260 -139 545 -164 634 -47 169 -55 228 -31 228 7 0 45
-33 83 -73z m3873 6 c-48 -238 -230 -977 -316 -1283 -101 -358 -175 -580 -194
-580 -39 0 -116 258 -140 470 -12 107 -1 170 61 367 96 302 243 633 356 803
93 140 227 300 240 286 3 -2 -1 -31 -7 -63z m-8987 -323 c14 -11 28 -29 32
-39 8 -25 79 -74 182 -125 96 -48 141 -86 169 -144 28 -56 25 -331 -5 -497
-42 -232 -117 -472 -178 -568 -42 -66 -62 -61 -112 27 -77 136 -149 390 -180
637 -31 245 -52 299 -129 338 -21 10 -120 44 -222 76 -102 31 -187 58 -189 60
-6 7 20 41 108 148 l82 97 185 0 c102 -1 188 1 192 4 11 12 40 5 65 -14z
m14307 0 l178 0 91 -106 c50 -59 91 -112 91 -119 0 -6 -42 -24 -92 -39 -352
-104 -388 -122 -412 -208 -8 -29 -24 -104 -36 -165 -11 -62 -29 -163 -41 -225
-44 -242 -174 -558 -229 -558 -32 0 -81 97 -125 249 -43 149 -69 283 -94 486
-42 342 -41 345 58 445 63 62 111 91 176 105 19 4 54 32 97 77 l68 71 46 -7
c26 -3 127 -6 224 -6z m620 -415 c217 -25 217 -25 307 -118 151 -159 436 -491
633 -738 137 -171 180 -232 180 -253 0 -38 -109 -9 -296 79 -131 62 -214 116
-271 178 -52 56 -69 90 -87 167 -14 60 -26 82 -56 108 -27 23 -127 71 -252
121 -157 63 -479 203 -628 273 l-114 54 69 56 c39 30 80 61 93 67 62 33 170
34 422 6z m-15460 -6 c91 -14 148 -41 156 -74 15 -61 -117 -140 -511 -305
-248 -104 -359 -157 -408 -194 -34 -26 -49 -53 -87 -158 -37 -102 -154 -205
-337 -297 -136 -68 -295 -112 -319 -89 -21 21 647 824 817 982 124 116 161
132 334 150 59 6 280 -4 355 -15z m280 -471 c38 -145 114 -348 252 -668 l109
-255 -16 -255 c-47 -747 -62 -840 -143 -848 -41 -4 -76 30 -93 89 -17 59 -15
255 5 464 8 94 17 219 18 279 l3 110 -35 7 c-19 5 -113 15 -208 24 -200 18
-304 45 -437 110 -116 58 -210 129 -288 218 -102 118 -126 138 -156 135 -36
-4 -37 -29 -5 -124 15 -45 28 -112 31 -155 5 -68 2 -83 -21 -135 -68 -147
-238 -376 -401 -539 -115 -115 -203 -185 -232 -185 -64 0 15 192 388 950 l231
468 471 237 470 238 14 -27 c7 -14 27 -76 43 -138z m15470 -276 l54 -27 238
-485 c276 -562 355 -733 395 -847 46 -135 18 -135 -152 1 -173 137 -392 425
-476 624 -24 56 -33 97 -36 152 -5 71 -3 77 28 124 50 75 43 142 -15 128 -33
-8 -72 -38 -186 -142 -126 -115 -202 -168 -324 -226 -146 -69 -223 -85 -430
-91 l-178 -6 6 -61 c31 -326 33 -771 4 -838 -32 -72 -92 -71 -122 1 -26 66
-44 200 -81 609 l-35 384 139 356 c154 394 232 616 251 707 7 33 14 63 16 67
3 5 634 -295 904 -430z m-9208 -407 c273 -356 359 -496 427 -700 60 -180 87
-397 70 -560 -29 -281 -187 -861 -320 -1175 l-53 -125 -41 250 c-51 307 -79
442 -154 733 -302 1177 -300 1162 -242 1372 56 208 125 430 132 430 4 0 85
-101 181 -225z m2233 62 c18 -45 58 -164 89 -263 l56 -182 -70 -293 c-38 -161
-104 -424 -146 -584 -148 -562 -164 -626 -189 -750 -33 -162 -55 -315 -55
-390 0 -61 -13 -131 -25 -143 -31 -31 -270 649 -327 929 -21 106 -23 137 -22
459 0 396 4 422 89 592 86 171 359 565 484 698 l51 54 16 -23 c9 -12 31 -59
49 -104z m6899 -495 c67 -203 239 -834 312 -1145 20 -89 17 -97 -46 -97 -119
0 -187 63 -288 271 -149 306 -251 648 -252 841 0 76 3 90 23 112 27 31 196
137 207 131 5 -3 24 -54 44 -113z m-16068 17 l121 -91 -24 -112 c-35 -161 -58
-247 -99 -371 -85 -258 -208 -531 -272 -606 -83 -97 -232 -107 -232 -16 0 69
296 1203 331 1268 18 35 52 20 175 -72z m4623 -514 c17 -148 42 -391 56 -540
80 -838 130 -1274 215 -1880 121 -860 121 -867 14 -1394 -37 -183 -99 -388
-135 -450 -12 -20 -38 -53 -58 -75 -39 -41 -160 -106 -200 -106 l-24 0 6 158
c3 86 18 274 33 417 40 371 40 766 1 1210 -72 819 -92 1646 -56 2275 16 283
70 777 87 804 9 15 26 -101 61 -419z m11001 383 c36 -39 46 -101 89 -543 46
-468 64 -683 57 -700 -17 -46 -113 9 -149 87 -39 84 -192 630 -267 957 -35
153 -34 159 43 180 33 10 162 35 199 40 4 1 16 -9 28 -21z m-15204 -9 c60 -11
116 -24 124 -29 17 -11 -25 -205 -132 -605 -121 -456 -148 -533 -201 -586 -37
-37 -57 -34 -80 11 -15 30 -17 50 -12 135 17 297 87 1022 101 1059 6 16 41 34
69 35 11 1 70 -8 131 -20z m10913 -56 c6 -42 20 -153 31 -247 71 -636 79
-1061 31 -1866 -41 -691 -45 -830 -46 -1430 0 -506 3 -634 18 -785 36 -368 33
-435 -21 -443 -26 -4 -141 47 -188 83 -65 49 -108 190 -198 635 -88 438 -88
538 3 1165 105 726 170 1302 276 2425 19 206 37 386 40 400 17 99 28 140 34
140 5 0 14 -34 20 -77z m-1484 -2868 c147 -552 220 -951 245 -1355 18 -277 2
-432 -61 -614 -49 -141 -81 -185 -184 -246 -108 -65 -122 -69 -132 -33 -12 43
-8 1277 5 1658 15 413 30 726 38 820 6 61 8 66 16 40 5 -16 37 -138 73 -270z
m-3721 -10 c51 -859 65 -2011 27 -2168 -9 -37 -36 -87 -48 -87 -3 0 -21 9 -39
20 -35 22 -93 86 -198 219 l-66 84 0 266 c1 385 16 754 39 907 27 182 126 585
249 1017 13 47 22 -18 36 -258z m-577 -1482 c-1 -257 2 -375 11 -418 35 -170
205 -413 404 -577 87 -72 98 -84 94 -107 -3 -14 -17 -96 -31 -181 -34 -209
-80 -440 -116 -583 -54 -214 -253 -642 -727 -1562 -299 -579 -343 -794 -462
-2240 -42 -505 -51 -609 -71 -755 -10 -74 -13 -82 -22 -60 -8 17 -11 254 -10
740 0 678 12 1172 33 1450 30 385 44 812 64 1955 l4 240 -165 318 -165 318 37
262 c20 144 46 311 57 370 20 106 22 109 60 137 21 16 90 54 153 85 85 41 132
72 180 116 120 112 177 230 250 509 24 93 48 178 54 187 21 41 47 52 141 63
100 11 163 34 194 69 11 11 23 21 27 21 5 0 7 -161 6 -357z m5012 271 c42 -4
82 -11 89 -17 28 -22 62 -109 116 -295 31 -106 72 -226 92 -267 74 -153 260
-312 382 -328 114 -14 145 -92 207 -522 15 -99 27 -216 27 -260 2 -95 -10
-125 -101 -265 -131 -203 -180 -341 -202 -576 -25 -264 12 -1531 61 -2099 21
-252 33 -697 34 -1280 1 -599 -7 -866 -25 -848 -18 18 -63 435 -114 1073 -71
880 -119 1203 -223 1510 -66 193 -131 329 -390 817 -230 435 -401 810 -505
1110 -89 256 -177 664 -177 822 0 108 16 136 108 197 82 53 115 86 165 159 22
33 55 78 73 100 135 169 193 549 137 901 l-19 120 94 -23 c52 -12 129 -25 171
-29z m-6154 -2304 c19 -39 42 -100 51 -137 24 -105 34 -497 24 -949 -9 -395
-15 -519 -45 -984 -26 -418 -35 -670 -65 -1965 -27 -1137 -86 -1700 -205
-1950 -39 -81 -91 -138 -105 -115 -26 42 -22 157 20 615 35 383 44 611 44
1155 1 563 -8 753 -44 930 -24 118 -105 402 -217 760 -161 516 -167 556 -161
1055 4 328 5 343 31 438 35 130 107 267 298 562 200 309 235 369 255 435 22
74 75 220 80 220 2 0 20 -32 39 -70z m7165 -95 c93 -204 181 -362 332 -593
234 -358 267 -461 283 -882 7 -183 -7 -422 -31 -545 -20 -102 -68 -275 -149
-535 -144 -463 -217 -742 -239 -912 -49 -373 -42 -1066 19 -1873 34 -446 41
-635 26 -664 l-13 -23 -25 24 c-32 30 -64 93 -96 193 -74 229 -113 464 -136
820 -22 332 -29 544 -61 1715 -21 760 -52 1532 -75 1820 -54 683 -32 1338 51
1535 9 22 20 51 25 64 5 13 11 22 13 20 2 -2 36 -76 76 -164z m-1124 -1309
c243 -507 335 -787 378 -1151 35 -297 141 -1825 132 -1899 l-8 -59 -19 29
c-97 141 -540 1133 -671 1499 -69 191 -98 372 -98 608 0 227 22 399 136 1039
l28 157 24 -36 c14 -20 58 -104 98 -187z m-4883 99 c67 -215 122 -621 133
-985 14 -457 -27 -623 -311 -1265 -157 -354 -421 -901 -459 -950 -14 -19 -15
-14 -16 65 0 213 88 1430 140 1927 21 195 39 281 95 443 88 253 317 773 363
823 21 23 34 9 55 -58z m-2049 -662 c24 -195 72 -388 220 -888 222 -746 263
-1161 197 -1980 -38 -460 -53 -738 -54 -1000 -1 -361 20 -479 95 -525 44 -28
78 -23 232 36 69 26 128 45 132 42 3 -3 19 -80 36 -170 22 -116 31 -196 32
-278 l1 -115 -47 -95 c-71 -143 -96 -264 -148 -717 -53 -463 -97 -717 -160
-920 -59 -188 -63 -221 -55 -443 6 -180 5 -200 -13 -252 -26 -73 -107 -210
-153 -260 -31 -33 -42 -38 -80 -38 -60 0 -238 46 -269 68 -44 33 -37 59 41
168 39 54 84 126 100 159 31 63 38 132 17 153 -34 34 -82 0 -263 -184 -107
-107 -174 -164 -197 -164 -5 0 -8 9 -8 19 0 19 14 46 109 221 51 93 53 120 11
120 -48 0 -104 -35 -188 -114 -135 -128 -212 -175 -212 -130 0 8 18 50 41 93
59 114 67 211 15 211 -25 0 -55 -21 -181 -126 -84 -69 -154 -109 -168 -95 -5
5 14 52 42 106 28 53 49 101 46 106 -13 20 -49 6 -133 -51 -49 -33 -92 -60
-95 -60 -48 0 179 311 414 569 313 342 316 347 409 684 129 468 152 719 89
985 -59 251 -45 326 116 607 93 162 137 271 175 428 121 499 96 1269 -80 2547
-125 907 -140 1092 -103 1311 9 54 17 98 19 96 2 -1 10 -57 18 -124z m8870
-343 c-10 -258 -46 -596 -124 -1165 -160 -1172 -173 -1840 -45 -2342 43 -168
87 -275 181 -440 137 -239 145 -292 94 -603 -43 -259 -46 -308 -25 -430 19
-119 140 -578 189 -722 45 -131 82 -190 211 -330 317 -344 555 -653 555 -721
0 -23 -14 -15 -105 57 -47 38 -79 56 -97 56 -42 0 -39 -11 49 -173 8 -15 12
-34 9 -43 -11 -29 -88 16 -215 127 -71 63 -130 94 -164 86 -44 -12 -41 -37 18
-157 54 -111 69 -170 42 -170 -21 0 -87 51 -193 149 -113 104 -156 131 -182
114 -40 -26 -10 -109 93 -256 53 -76 68 -117 42 -117 -29 0 -123 78 -267 222
-86 86 -170 160 -188 168 -30 12 -35 11 -54 -8 -30 -30 -18 -73 49 -178 160
-253 179 -307 122 -342 -12 -8 -60 -18 -108 -23 -47 -5 -105 -11 -127 -15 -39
-6 -45 -4 -89 37 -50 46 -135 164 -163 227 -14 31 -17 75 -17 287 l0 250 -42
126 c-79 238 -146 637 -198 1174 -20 201 -48 340 -87 430 -74 171 -80 189 -85
264 -3 42 0 117 6 166 12 91 60 357 66 363 1 2 37 -18 80 -44 97 -59 163 -84
220 -84 37 0 52 6 80 33 31 28 38 45 63 147 41 174 37 369 -23 1095 -39 470
-48 683 -42 983 9 461 61 736 257 1371 119 386 177 628 201 841 7 53 17 -300
13 -410z m-995 -4823 c5 -12 12 -124 16 -248 6 -182 5 -228 -6 -234 -18 -12
-56 37 -108 141 -38 76 -43 93 -39 138 4 52 54 174 85 208 22 24 42 22 52 -5z
m-6846 -5 c9 -9 30 -48 48 -85 44 -94 39 -161 -20 -281 -45 -89 -72 -122 -94
-113 -21 8 -27 54 -27 203 0 223 38 337 93 276z"/>
<path d="M9952 32790 c-71 -13 -106 -32 -176 -99 -77 -73 -116 -134 -116 -182
0 -45 12 -51 88 -43 55 6 59 5 102 -30 141 -113 188 -123 286 -56 33 22 91 69
129 106 l70 65 -60 -5 c-234 -22 -353 -17 -401 19 -18 13 -18 14 9 24 15 6 94
20 175 31 296 41 332 50 332 86 0 50 -98 81 -275 89 -60 2 -134 0 -163 -5z"/>
<path d="M8650 32779 c-86 -15 -120 -28 -120 -48 0 -52 131 -96 326 -111 129
-10 204 -28 204 -49 0 -15 -69 -51 -120 -63 -40 -9 -56 -8 -111 11 -79 28
-163 32 -185 9 -22 -21 -11 -39 56 -89 131 -99 205 -114 298 -64 29 16 67 44
84 63 29 34 31 35 91 28 73 -7 90 1 89 44 -2 64 -118 201 -213 251 -40 21 -58
24 -194 26 -82 1 -175 -3 -205 -8z"/>
<path d="M9187 31894 c-44 -48 -90 -170 -91 -242 -1 -59 1 -66 31 -92 49 -44
177 -81 303 -87 161 -8 288 24 368 93 59 50 58 87 -7 220 -53 106 -71 130 -96
120 -18 -7 -20 -59 -3 -140 10 -52 9 -60 -9 -84 -11 -15 -46 -38 -79 -51 -108
-44 -325 -29 -361 25 -13 21 -14 35 -3 106 21 145 2 192 -53 132z"/>
<path d="M9206 31329 c-179 -15 -243 -38 -234 -86 10 -55 158 -77 513 -76 282
1 409 14 461 48 48 31 21 77 -56 94 -124 28 -468 38 -684 20z"/>
<path d="M9325 31105 c-5 -2 -32 -6 -58 -10 -60 -8 -87 -33 -87 -80 0 -25 6
-39 23 -49 36 -23 174 -47 278 -48 157 -1 243 41 243 117 0 44 -11 55 -66 66
-41 8 -312 11 -333 4z"/>
<path d="M6997 11523 c-23 -22 0 -170 75 -488 36 -156 53 -250 57 -324 5 -81
10 -106 22 -114 40 -25 115 69 145 182 16 56 16 75 6 159 -23 179 -137 464
-222 553 -34 36 -67 49 -83 32z"/>
<path d="M6316 10938 c-9 -12 -16 -37 -16 -56 0 -113 199 -298 397 -368 130
-45 253 -24 253 45 0 40 -52 83 -179 150 -120 62 -266 158 -301 196 -53 57
-126 73 -154 33z"/>
<path d="M11846 11519 c-104 -123 -206 -454 -206 -665 0 -118 18 -164 88 -224
71 -60 82 -53 82 52 0 82 24 241 66 432 62 284 67 427 17 434 -13 2 -30 -8
-47 -29z"/>
<path d="M12513 10934 c-24 -14 -43 -29 -43 -33 0 -17 -123 -93 -268 -166
-163 -82 -226 -129 -220 -166 5 -36 47 -59 118 -65 53 -5 80 -1 146 20 145 46
322 183 372 288 58 119 1 186 -105 122z"/>
</g>
</svg>
