<?xml version="1.0" standalone="no"?>
<!DOCTYPE svg PUBLIC "-//W3C//DTD SVG 20010904//EN"
 "http://www.w3.org/TR/2001/REC-SVG-20010904/DTD/svg10.dtd">
<svg version="1.0" xmlns="http://www.w3.org/2000/svg"
 width="687.000000pt" height="1250.000000pt" viewBox="0 0 687.000000 1250.000000"
 preserveAspectRatio="xMidYMid meet">

<g transform="translate(0.000000,1250.000000) scale(0.100000,-0.100000)"
fill="#000000" stroke="none">
<path d="M3460 12490 c-145 -27 -283 -112 -370 -228 -64 -86 -74 -132 -66
-299 l7 -143 -27 -24 c-14 -13 -35 -31 -45 -39 -26 -23 -34 -82 -20 -162 16
-94 50 -164 109 -224 112 -116 162 -302 110 -410 -27 -56 -142 -174 -223 -228
-145 -97 -296 -158 -495 -198 -390 -79 -567 -200 -620 -424 -10 -41 -11 -107
-6 -261 10 -287 -6 -400 -109 -790 -30 -113 -63 -256 -74 -319 -23 -132 -33
-150 -158 -288 -97 -108 -148 -183 -208 -308 -94 -195 -147 -389 -195 -705
-33 -225 -66 -371 -99 -440 -76 -161 -375 -451 -561 -545 -111 -56 -147 -119
-96 -170 26 -26 71 -40 163 -50 l61 -7 -96 -196 c-87 -176 -97 -201 -97 -251
0 -51 2 -56 23 -59 13 -2 52 10 87 27 80 37 80 35 25 -105 -22 -56 -40 -109
-40 -117 0 -34 96 -37 160 -4 38 18 52 34 85 96 l40 75 6 -91 c7 -97 22 -154
44 -173 25 -21 79 42 145 170 34 66 68 120 75 120 8 0 26 -39 45 -94 34 -104
57 -134 88 -117 32 17 54 79 68 186 19 145 52 547 65 790 l12 210 252 395
c481 753 534 857 554 1081 13 144 32 194 120 313 139 187 171 354 147 756 -7
124 -6 148 7 165 28 36 47 1 63 -116 19 -135 39 -216 118 -487 96 -326 110
-409 110 -622 -1 -188 -9 -251 -84 -670 -98 -544 -219 -1518 -251 -2015 -13
-201 -8 -341 20 -650 31 -332 44 -664 38 -991 -6 -353 -6 -354 -117 -684 -126
-373 -150 -494 -150 -757 0 -191 22 -376 80 -676 31 -162 40 -232 40 -314 0
-174 -54 -479 -104 -588 -27 -59 -52 -79 -109 -89 -48 -9 -127 -83 -127 -119
0 -13 14 -36 31 -53 49 -46 100 -127 182 -289 121 -238 158 -270 306 -263 94
5 144 24 195 74 36 36 42 53 60 161 39 225 43 478 10 618 -7 33 -14 106 -14
161 0 208 55 393 210 699 58 116 118 247 133 291 61 188 71 383 37 724 -11
107 -20 240 -20 295 0 108 10 143 98 355 69 166 105 330 147 665 48 381 93
584 170 773 70 174 87 281 105 687 12 257 26 421 41 479 26 96 38 -10 49 -399
12 -465 12 -466 128 -805 57 -165 99 -368 137 -660 53 -400 91 -579 152 -715
82 -184 90 -274 74 -889 l-11 -429 114 -216 c126 -239 188 -377 234 -521 60
-189 75 -330 47 -445 -35 -143 -28 -495 15 -704 22 -110 35 -131 97 -168 42
-24 58 -28 128 -28 64 0 90 5 128 24 99 48 185 167 236 323 23 69 62 136 88
152 52 30 67 80 39 134 -16 31 -61 74 -94 92 -51 26 -101 82 -122 136 -24 66
-65 281 -79 422 -12 118 -3 229 34 412 59 291 81 567 65 823 -17 273 -55 457
-136 665 -92 233 -104 336 -104 851 0 349 11 608 33 771 17 135 14 624 -7 905
-44 592 -115 1169 -216 1740 -92 518 -108 668 -90 852 12 120 24 170 124 533
31 113 76 295 99 405 l44 199 6 -250 c12 -441 43 -571 180 -750 95 -123 105
-150 116 -329 14 -200 40 -257 329 -705 330 -512 392 -620 437 -762 34 -108
42 -161 70 -503 42 -498 59 -618 95 -650 38 -34 72 12 110 150 12 44 25 84 29
88 4 4 24 -30 45 -75 44 -100 117 -210 149 -227 13 -7 35 -11 48 -9 20 2 25
10 27 41 3 31 -26 171 -46 227 -3 8 25 -22 62 -68 72 -88 148 -142 201 -142
68 0 73 28 28 161 -20 60 -34 111 -31 114 3 3 38 -10 79 -30 81 -39 107 -43
116 -19 12 31 -30 142 -107 285 -114 209 -116 239 -14 239 89 0 154 36 154 84
0 9 -28 37 -62 64 -113 86 -352 284 -413 341 -199 187 -237 276 -305 721 -74
479 -174 733 -374 948 -126 136 -153 181 -171 279 -7 45 -32 138 -54 208 -77
239 -106 446 -126 885 -8 173 -19 330 -24 348 -32 106 -160 236 -303 306 -89
44 -137 59 -413 125 -146 34 -251 77 -350 142 -98 64 -234 195 -270 260 -26
48 -27 57 -22 132 7 100 56 209 117 258 103 83 167 341 103 412 -46 50 -73
145 -73 257 0 231 -113 375 -355 449 -78 25 -233 35 -305 21z m228 -80 c94
-12 168 -51 250 -131 94 -92 95 -95 103 -304 6 -185 17 -246 50 -278 24 -22
24 -68 3 -133 -35 -102 -74 -130 -222 -158 -118 -22 -150 -40 -176 -95 -20
-45 -21 -65 -27 -676 -8 -674 -25 -1096 -60 -1430 -44 -428 -79 -263 -99 470
-14 491 -31 722 -65 887 -21 99 -18 179 10 293 48 190 55 358 19 444 -33 79
-83 105 -232 120 -56 6 -106 18 -125 28 -42 24 -68 80 -75 159 -5 62 -4 64 29
95 39 36 40 46 24 265 -7 113 -6 125 13 165 31 63 166 215 219 246 67 39 212
52 361 33z m-300 -1117 c20 -39 21 -91 6 -231 -8 -81 -21 -238 -27 -349 l-12
-201 -90 37 c-119 50 -168 61 -264 61 -113 0 -110 28 11 84 100 47 219 195
284 356 16 40 29 97 34 152 5 48 11 92 15 98 10 16 33 12 43 -7z m416 1 c3 -9
11 -59 17 -112 19 -169 39 -206 199 -372 100 -104 160 -175 160 -192 0 -4 -26
-8 -57 -8 -56 0 -143 -25 -270 -78 l-52 -21 -5 32 c-27 166 -45 691 -26 741
11 30 25 34 34 10z m648 -775 c31 -9 68 -36 68 -50 0 -4 -9 -11 -21 -14 -94
-30 -215 -262 -299 -574 -70 -264 -139 -423 -264 -610 -68 -101 -215 -285
-222 -278 -5 5 11 581 26 954 11 256 23 378 45 429 43 103 480 197 667 143z
m-1367 -14 c160 -34 251 -78 281 -137 32 -62 44 -205 55 -678 12 -496 8 -627
-19 -637 -21 -8 -113 90 -181 193 -78 117 -174 323 -216 459 -160 525 -227
678 -326 740 -21 14 -39 30 -39 36 0 5 19 19 43 30 37 18 57 19 182 16 77 -3
176 -12 220 -22z m1752 -96 c226 -79 327 -149 385 -267 30 -60 33 -76 37 -175
3 -99 -24 -377 -37 -377 -2 0 -47 35 -99 77 -115 93 -201 184 -261 278 -56 86
-135 165 -227 230 -128 89 -166 135 -145 175 13 24 165 99 202 100 15 0 80
-19 145 -41z m-2271 2 c71 -32 114 -68 114 -96 0 -26 -26 -49 -126 -108 -91
-54 -186 -147 -250 -245 -31 -48 -91 -122 -133 -165 -71 -74 -238 -213 -246
-206 -1 2 -11 65 -20 139 -24 190 -18 315 19 398 53 116 184 210 394 283 101
35 168 35 248 0z m214 -248 c65 -172 130 -414 130 -481 0 -30 -5 -44 -17 -49
-36 -14 -146 69 -367 278 l-89 85 99 83 c96 80 187 141 211 141 6 0 21 -26 33
-57z m1813 -73 c61 -42 112 -81 112 -87 0 -14 -231 -226 -319 -292 -104 -79
-176 -107 -176 -67 0 15 167 522 180 547 11 20 11 20 51 -3 21 -12 90 -56 152
-98z m-2100 -257 c149 -169 265 -257 367 -278 58 -12 110 -36 110 -51 0 -26
-52 -37 -195 -42 -144 -4 -308 9 -330 28 -15 13 -27 74 -55 290 -22 172 -24
198 -12 185 5 -6 56 -65 115 -132z m2287 48 c0 -87 -37 -289 -63 -341 -33 -67
-73 -83 -222 -88 -66 -2 -160 1 -210 7 -150 18 -153 54 -7 95 44 13 102 36
129 51 26 16 118 97 203 181 85 85 158 154 163 154 4 0 7 -27 7 -59z m-2455
-227 c0 -125 -1 -131 -32 -197 -18 -38 -62 -110 -97 -160 -166 -240 -294 -569
-376 -969 -50 -245 -70 -287 -98 -205 -26 81 -36 188 -37 377 0 173 3 204 22
272 33 112 74 193 154 303 184 252 349 524 349 573 0 36 83 146 105 139 6 -2
10 -52 10 -133z m2635 -60 c122 -244 169 -319 303 -478 61 -72 119 -151 130
-175 38 -86 58 -216 64 -412 5 -176 4 -195 -22 -325 -36 -180 -40 -192 -49
-129 -34 235 -123 570 -210 792 -69 177 -108 255 -208 410 -127 198 -179 328
-163 410 9 48 37 104 49 100 6 -2 54 -88 106 -193z m-2840 6 c0 -51 -251 -420
-286 -420 -19 0 -18 52 1 116 36 122 200 310 273 313 6 1 12 -4 12 -9z m3007
-38 c66 -53 163 -159 178 -197 29 -69 30 -165 1 -165 -19 0 -79 67 -134 150
-58 88 -132 222 -132 238 0 23 39 11 87 -26z m-1897 -448 c91 -118 171 -224
179 -235 11 -16 12 -42 2 -162 -22 -254 -128 -1198 -136 -1205 -5 -5 -159 113
-212 161 -56 52 -143 166 -187 248 -66 120 -99 230 -146 474 -27 144 -75 332
-160 632 -39 135 -70 253 -70 263 0 14 10 21 38 25 20 4 44 8 52 10 8 1 119 3
245 4 l230 0 165 -215z m1421 199 c14 -14 9 -35 -87 -343 -82 -266 -127 -444
-164 -645 -17 -89 -40 -191 -51 -226 -66 -201 -210 -398 -394 -538 -68 -51
-85 -59 -85 -41 0 6 -20 173 -45 373 -78 635 -89 797 -65 928 16 87 77 190
210 355 l125 154 272 -2 c195 -2 275 -6 284 -15z m320 -170 c46 -66 77 -134
104 -225 13 -47 54 -168 90 -269 37 -101 69 -205 72 -231 5 -43 4 -48 -15 -48
-27 0 -120 80 -181 155 -119 146 -160 281 -167 555 l-5 185 36 -40 c21 -22 50
-59 66 -82z m-2697 56 c11 -57 6 -222 -9 -319 -19 -113 -52 -212 -97 -288 -54
-92 -223 -252 -266 -252 -25 0 -7 68 77 294 44 116 94 258 111 316 36 116 76
198 123 248 39 40 53 40 61 1z m1339 -359 c35 -27 43 -73 67 -378 23 -292 49
-503 87 -722 32 -181 39 -433 14 -504 -21 -61 -75 -114 -134 -131 -65 -19
-150 -19 -187 0 -36 19 -73 68 -91 120 -24 68 -17 302 15 495 39 239 65 477
76 700 18 338 25 398 45 420 24 26 75 26 108 0z m2098 -522 c43 -63 135 -242
169 -327 38 -98 89 -313 125 -527 19 -116 42 -242 50 -280 33 -143 87 -286
136 -356 21 -29 19 -32 -40 -53 l-41 -14 -19 37 c-34 66 -69 202 -120 458
-110 553 -229 954 -316 1063 -33 42 -43 70 -28 84 10 10 41 -21 84 -85z
m-4205 34 c-8 -21 -29 -69 -48 -107 -114 -227 -196 -521 -278 -990 -49 -278
-93 -449 -127 -487 -13 -15 -18 -15 -61 -1 -26 9 -48 17 -50 18 -1 1 14 28 33
61 64 105 112 284 175 649 43 249 122 507 215 700 72 149 181 271 141 157z
m120 -72 c11 -54 18 -128 18 -205 0 -110 -3 -127 -32 -206 -70 -190 -309 -692
-362 -759 l-20 -25 0 35 c0 64 108 495 206 823 58 192 156 451 165 434 4 -6
15 -50 25 -97z m3943 37 c46 -50 132 -293 220 -622 62 -228 111 -465 111 -526
l-1 -44 -29 34 c-34 40 -159 282 -220 426 -58 137 -116 315 -135 418 -25 133
-21 289 7 325 14 17 21 15 47 -11z m-3580 -166 c2 -162 -72 -305 -451 -871
-183 -274 -265 -386 -276 -376 -7 7 107 235 219 441 45 83 111 213 146 290 92
204 104 225 144 264 45 44 59 71 59 111 0 51 37 141 93 221 l52 77 7 -47 c3
-25 7 -75 7 -110z m3236 82 c37 -51 73 -132 101 -227 14 -45 29 -70 69 -110
43 -43 56 -64 78 -133 34 -105 129 -306 251 -527 114 -206 169 -321 164 -338
-13 -38 -637 906 -688 1040 -10 27 -24 86 -30 132 -11 84 -5 210 11 210 5 0
24 -21 44 -47z m-715 -734 c17 -86 30 -162 30 -168 0 -7 -72 56 -160 140 -88
84 -160 157 -160 162 0 8 156 289 198 357 15 24 17 16 39 -155 13 -99 37 -250
53 -336z m-1680 324 c61 -92 110 -170 110 -173 0 -11 -287 -290 -299 -290 -6
0 -11 6 -11 13 1 43 82 617 87 617 2 0 53 -75 113 -167z m1336 -274 c77 -60
297 -285 345 -353 27 -37 57 -92 68 -121 32 -84 53 -296 32 -309 -5 -3 -29 10
-53 30 -56 47 -182 132 -333 224 -148 91 -211 136 -254 185 -57 65 -66 126
-30 198 24 46 151 177 173 177 7 0 31 -14 52 -31z m-1000 -73 c75 -77 94 -124
75 -188 -19 -62 -114 -150 -246 -227 -164 -95 -291 -179 -368 -243 -38 -32
-78 -58 -89 -58 -20 0 -20 4 -14 68 11 114 44 253 76 318 35 71 121 168 244
275 108 93 155 119 215 119 42 0 49 -4 107 -64z m242 -424 c105 -127 126 -189
126 -382 1 -137 -6 -190 -25 -190 -37 0 -179 464 -179 583 0 65 16 63 78 -11z
m582 -10 c27 -21 100 -64 162 -96 240 -125 418 -264 447 -351 19 -54 27 -499
12 -636 -13 -117 -39 -189 -70 -189 -11 0 -46 7 -78 15 -32 8 -128 24 -213 35
-298 39 -407 76 -492 167 -106 115 -104 245 7 553 73 198 96 295 104 430 4 63
10 121 15 128 9 15 21 8 106 -56z m-721 10 c5 -20 17 -93 26 -162 21 -164 47
-274 89 -370 47 -106 65 -169 76 -273 12 -106 1 -194 -31 -238 -57 -81 -213
-146 -410 -174 -193 -27 -301 -45 -372 -61 -48 -12 -72 -13 -79 -6 -22 22 -27
109 -28 469 l0 371 98 92 c117 111 225 185 398 273 71 36 147 79 169 95 22 17
43 28 47 26 4 -3 12 -22 17 -42z m549 4 c9 -109 -159 -609 -212 -629 -23 -9
-25 1 -10 56 8 29 19 120 24 202 5 83 16 173 25 201 26 88 127 222 159 211 6
-2 12 -20 14 -41z m2520 -391 c53 -46 110 -101 126 -122 42 -53 72 -133 91
-248 22 -129 56 -228 115 -340 56 -106 67 -143 46 -151 -21 -8 -62 27 -151
128 -67 78 -107 109 -121 95 -8 -7 40 -123 105 -257 63 -129 74 -176 44 -187
-26 -10 -80 59 -153 198 -141 267 -174 239 -106 -91 19 -91 32 -168 29 -173
-2 -4 -12 -3 -22 3 -25 13 -64 110 -101 248 -44 164 -78 227 -112 206 -16 -10
-30 -55 -49 -168 -10 -60 -23 -114 -28 -119 -26 -26 -46 120 -62 454 -13 261
-7 404 16 449 19 36 112 107 180 137 27 12 51 22 53 23 1 0 46 -38 100 -85z
m-5354 41 c77 -28 129 -65 154 -109 15 -29 17 -65 17 -342 0 -294 -11 -457
-37 -578 -5 -26 -13 -45 -17 -42 -5 2 -11 51 -15 107 -10 155 -37 241 -80 254
-28 9 -42 -16 -49 -85 -11 -105 -102 -358 -140 -390 -15 -12 -17 -10 -17 13 0
14 12 86 26 158 27 140 34 262 16 280 -6 6 -18 8 -26 5 -18 -7 -61 -89 -71
-137 -17 -83 -131 -250 -170 -250 -36 0 -19 87 45 229 61 135 82 201 65 201
-7 0 -66 -49 -130 -110 -170 -162 -189 -145 -72 68 64 116 95 199 102 277 13
138 81 292 161 367 47 44 138 106 156 107 9 1 46 -10 82 -23z m-399 -248 c-18
-35 -38 -87 -45 -115 l-12 -53 -73 0 c-88 0 -105 5 -105 34 0 35 19 51 115
102 50 25 104 57 120 70 17 13 31 24 31 24 1 0 -13 -28 -31 -62z m6044 -1 c36
-24 92 -60 124 -81 94 -60 74 -88 -59 -84 l-88 3 -12 65 c-7 36 -19 82 -27
103 -9 20 -13 37 -10 37 3 0 36 -20 72 -43z m-1892 -987 c-5 -444 -9 -526 -27
-515 -25 15 -35 163 -35 490 0 333 7 435 37 525 l11 35 10 -35 c5 -21 7 -228
4 -500z m-2272 344 c22 -138 30 -478 16 -652 -12 -146 -38 -295 -51 -287 -4 3
-15 43 -25 89 -15 73 -17 120 -12 363 7 333 32 611 53 590 2 -2 11 -48 19
-103z m1323 11 c72 -47 138 -75 181 -75 15 0 35 -6 46 -13 16 -13 17 -25 12
-118 -11 -203 -96 -720 -133 -807 l-15 -37 -19 23 c-47 57 -109 276 -145 512
-16 108 -33 515 -22 544 9 24 23 20 95 -29z m-343 -222 c7 -274 0 -369 -40
-508 -30 -103 -90 -258 -118 -304 -20 -33 -21 -34 -29 -11 -5 13 -24 109 -44
214 -20 105 -55 298 -80 429 -46 246 -46 254 -7 289 23 21 270 136 294 137 15
1 17 -27 24 -246z m917 117 c117 -43 180 -80 197 -115 11 -21 17 -89 23 -236
7 -192 14 -266 52 -549 19 -137 32 -291 51 -585 22 -360 27 -347 -62 -170
-144 285 -172 392 -228 885 -29 249 -68 529 -85 604 -6 27 -22 72 -35 101 -28
59 -32 95 -11 95 8 0 52 -14 98 -30z m-186 -26 c39 -93 82 -345 120 -699 26
-237 24 -630 -4 -837 -25 -179 -67 -387 -82 -402 -19 -19 -39 61 -90 365 -28
167 -60 354 -72 414 -33 175 -30 364 10 585 42 233 51 301 61 456 4 72 11 136
15 143 13 20 27 12 42 -25z m-1290 2 c3 -13 -5 -54 -20 -97 -47 -135 -77 -312
-121 -714 -42 -373 -75 -513 -199 -819 -60 -152 -64 -158 -71 -125 -4 19 -8
124 -8 234 0 204 12 351 58 690 36 272 48 445 42 591 -7 146 -2 160 56 191 63
32 183 72 219 73 31 0 39 -4 44 -24z m128 -3 c11 -27 54 -383 67 -553 18 -226
16 -545 -5 -735 -33 -307 -95 -655 -117 -655 -20 0 -78 275 -103 490 -32 277
-8 753 60 1190 34 217 74 325 98 263z m173 -1385 c-12 -200 -96 -694 -133
-788 -39 -98 -55 14 -29 213 9 67 40 233 70 369 49 223 74 308 92 308 3 0 3
-46 0 -102z m797 80 c31 -112 78 -311 91 -388 40 -231 58 -484 37 -518 -11
-16 -65 215 -97 412 -25 153 -55 416 -55 481 0 39 14 47 24 13z m492 -248 c71
-152 87 -212 82 -297 -6 -85 -53 -240 -83 -273 -27 -30 -43 -25 -95 28 -69 68
-76 104 -55 256 20 138 58 327 75 371 11 29 12 30 27 10 8 -11 30 -54 49 -95z
m-1700 89 c4 -6 11 -68 15 -138 5 -69 20 -172 34 -229 32 -134 32 -159 -4
-213 -31 -46 -138 -156 -144 -148 -3 2 -21 74 -42 159 -44 182 -44 247 0 370
60 166 114 242 141 199z m-252 -499 c22 -56 46 -200 46 -279 0 -38 -22 -185
-50 -337 -97 -521 -134 -760 -145 -949 -4 -55 -11 -125 -17 -155 -18 -94 -61
-158 -86 -127 -26 33 -56 337 -56 577 -1 209 7 252 102 550 95 297 127 434
141 606 5 65 13 127 16 137 12 29 32 19 49 -23z m2155 16 c6 -8 14 -36 16 -62
3 -27 10 -97 15 -155 13 -131 44 -259 110 -457 28 -85 60 -193 71 -240 28
-127 43 -466 30 -674 -11 -173 -23 -236 -48 -255 -46 -36 -63 22 -108 385 -57
454 -135 891 -181 1012 -37 96 -14 303 46 421 22 42 31 47 49 25z m-1795 -198
c13 -68 35 -434 45 -758 6 -184 13 -384 16 -445 l6 -110 -74 -165 c-41 -91
-97 -214 -125 -274 l-50 -109 -15 34 c-8 19 -49 112 -91 207 -93 211 -110 276
-102 392 15 198 95 650 142 802 61 196 195 458 234 458 4 0 10 -15 14 -32z
m1436 -5 c82 -100 156 -292 234 -611 108 -440 127 -652 72 -831 -63 -209 -151
-398 -179 -388 -16 5 -108 183 -151 292 -48 122 -65 199 -72 340 -7 120 12
1141 22 1203 7 44 34 42 74 -5z m-1841 -1639 c24 -31 71 -151 106 -269 31
-108 33 -208 5 -323 -44 -182 -52 -288 -57 -751 l-5 -444 -110 7 c-63 4 -122
13 -138 21 -70 36 -131 153 -164 316 -3 14 -30 54 -61 88 -30 34 -55 67 -55
74 1 46 72 57 114 18 14 -13 45 -74 70 -140 46 -118 122 -261 156 -295 46 -46
66 17 30 95 -25 56 -25 86 1 151 30 76 40 278 29 576 -12 302 -24 432 -56 589
-27 131 -25 154 12 219 23 41 77 94 94 94 5 0 18 -12 29 -26z m2279 -19 c40
-34 62 -83 62 -142 0 -27 -13 -130 -30 -228 -48 -293 -60 -400 -67 -600 -7
-225 5 -328 49 -428 41 -96 44 -124 18 -184 -25 -59 -24 -106 3 -111 44 -9
103 101 94 176 -4 38 -2 44 17 52 32 12 54 41 82 109 45 113 90 153 142 129
15 -7 28 -21 30 -30 2 -9 -22 -44 -52 -78 -40 -45 -59 -77 -71 -118 -40 -138
-108 -263 -156 -287 -30 -16 -204 -21 -225 -7 -33 21 -35 51 -28 320 9 364
-16 672 -71 878 -28 102 -32 189 -12 255 26 86 107 264 132 292 32 33 45 34
83 2z m117 -785 c14 -107 35 -235 46 -285 22 -101 16 -162 -24 -245 -31 -65
-56 -61 -81 10 -30 86 -29 385 3 578 13 78 25 141 26 140 2 -2 15 -91 30 -198z
m-2544 0 c30 -193 33 -450 6 -527 -23 -67 -41 -82 -67 -58 -44 39 -52 208 -21
445 31 236 44 312 52 298 4 -8 18 -79 30 -158z"/>
</g>
</svg>
